<svg width="50" height="50" viewBox="0 0 50 50" fill="none" xmlns="http://www.w3.org/2000/svg">
<g id="icons">
<path id="copy" d="M38.3333 13.3333V43.3333C38.3333 43.7754 38.1577 44.1993 37.8452 44.5118C37.5326 44.8244 37.1087 45 36.6667 45H6.66667C6.22464 45 5.80072 44.8244 5.48816 44.5118C5.1756 44.1993 5 43.7754 5 43.3333V13.3333C5 12.8913 5.1756 12.4674 5.48816 12.1548C5.80072 11.8423 6.22464 11.6667 6.66667 11.6667H36.6667C37.1087 11.6667 37.5326 11.8423 37.8452 12.1548C38.1577 12.4674 38.3333 12.8913 38.3333 13.3333ZM43.3333 5H13.3333C12.8913 5 12.4674 5.1756 12.1548 5.48816C11.8423 5.80072 11.6667 6.22464 11.6667 6.66667C11.6667 7.10869 11.8423 7.53262 12.1548 7.84518C12.4674 8.15774 12.8913 8.33333 13.3333 8.33333H41.6667V36.6667C41.6667 37.1087 41.8423 37.5326 42.1548 37.8452C42.4674 38.1577 42.8913 38.3333 43.3333 38.3333C43.7754 38.3333 44.1993 38.1577 44.5118 37.8452C44.8244 37.5326 45 37.1087 45 36.6667V6.66667C45 6.22464 44.8244 5.80072 44.5118 5.48816C44.1993 5.1756 43.7754 5 43.3333 5Z" fill="#3B9ADC"/>
</g>
</svg>
