<svg width="100" height="100" viewBox="0 0 100 100" fill="none" xmlns="http://www.w3.org/2000/svg">
<circle cx="50.3871" cy="48.3871" r="40.3226" fill="#D9D9D9" stroke="#3B9ADC" stroke-width="16.129"/>
<circle cx="68.129" cy="43.5484" r="8.06452" fill="#3B9ADC"/>
<path d="M11.6774 41.9355H89.0968V64.5161C89.0968 73.424 81.8756 80.6452 72.9678 80.6452H27.8064C18.8986 80.6452 11.6774 73.424 11.6774 64.5161V41.9355Z" fill="#3B9ADC"/>
<circle cx="71.3548" cy="62.9032" r="8.06452" fill="#D9D9D9"/>
<circle cx="29.4193" cy="62.9032" r="8.06452" fill="#D9D9D9"/>
<rect x="40.7097" y="58.0645" width="19.3548" height="3.22581" rx="1.6129" fill="#D9D9D9"/>
<rect x="40.7097" y="64.5161" width="19.3548" height="3.22581" rx="1.6129" fill="#D9D9D9"/>
<path d="M14.9032 77.4194H31.0323V91.9355C31.0323 96.3894 27.4217 100 22.9677 100C18.5138 100 14.9032 96.3894 14.9032 91.9355V77.4194Z" fill="#3B9ADC"/>
<path d="M69.7419 77.4194H85.871V91.9355C85.871 96.3894 82.2604 100 77.8065 100C73.3526 100 69.7419 96.3894 69.7419 91.9355V77.4194Z" fill="#3B9ADC"/>
</svg>
