<svg width="50" height="50" viewBox="0 0 50 50" fill="none" xmlns="http://www.w3.org/2000/svg">
<g id="icons">
<path id="refresh" d="M45 24.4986C45.0004 29.3627 43.0895 34.0313 39.6807 37.4939C36.272 40.9565 31.6397 42.9346 26.7865 42.9999H26.5385C21.8236 43.0117 17.2852 41.2035 13.8654 37.9506C13.7186 37.8114 13.6005 37.6446 13.518 37.4597C13.4355 37.2748 13.3901 37.0754 13.3845 36.8729C13.3788 36.6704 13.4131 36.4688 13.4852 36.2795C13.5573 36.0903 13.6659 35.9171 13.8048 35.77C13.9437 35.6228 14.1102 35.5045 14.2947 35.4218C14.4792 35.3391 14.6782 35.2936 14.8803 35.288C15.0823 35.2823 15.2835 35.3167 15.4723 35.3889C15.6612 35.4612 15.8339 35.5701 15.9808 35.7093C18.1804 37.7881 20.9425 39.1714 23.922 39.6863C26.9015 40.2011 29.9663 39.8247 32.7337 38.6041C35.501 37.3835 37.848 35.3728 39.4817 32.8232C41.1153 30.2736 41.9631 27.2981 41.9191 24.2684C41.8751 21.2387 40.9413 18.2892 39.2344 15.7883C37.5274 13.2873 35.1229 11.3459 32.3214 10.2065C29.5198 9.06711 26.4453 8.78024 23.482 9.38175C20.5187 9.98326 17.798 11.4465 15.6596 13.5886C15.6439 13.6056 15.6272 13.6217 15.6096 13.6368L13.5827 15.4965L16.8519 18.7728C17.0703 18.9876 17.2198 19.2627 17.2814 19.5631C17.343 19.8634 17.3138 20.1753 17.1975 20.459C17.0813 20.7426 16.8834 20.985 16.6289 21.1554C16.3745 21.3257 16.0752 21.4161 15.7692 21.415H6.53849C6.13046 21.415 5.73915 21.2526 5.45063 20.9635C5.16211 20.6743 5.00003 20.2822 5.00003 19.8733V10.6226C4.99826 10.3168 5.08725 10.0174 5.25569 9.76249C5.42414 9.50753 5.66442 9.30853 5.94601 9.19078C6.22759 9.07303 6.53775 9.04184 6.83707 9.10119C7.13638 9.16054 7.41132 9.30774 7.62695 9.52408L11.4058 13.3207L13.5096 11.3935C16.0942 8.8134 19.3836 7.05852 22.9626 6.35039C26.5415 5.64226 30.2496 6.01262 33.6187 7.41471C36.9878 8.81681 39.8669 11.1878 41.8925 14.2283C43.9181 17.2689 44.9995 20.8427 45 24.4986Z" fill="#3B9ADC"/>
</g>
</svg>
