<svg width="50" height="50" viewBox="0 0 50 50" fill="none" xmlns="http://www.w3.org/2000/svg">
<g id="icons">
<path id="save" d="M41.6667 5.00002H37.5C37.279 5.00002 37.067 5.08781 36.9107 5.24409C36.7545 5.40037 36.6667 5.61234 36.6667 5.83335V15C36.6667 15.8841 36.3155 16.7319 35.6904 17.357C35.0652 17.9822 34.2174 18.3333 33.3333 18.3333H16.7229C16.2921 18.3402 15.8747 18.1834 15.5549 17.8946C15.2352 17.6058 15.0369 17.2064 15 16.7771C14.9849 16.5491 15.0168 16.3205 15.0937 16.1053C15.1707 15.8902 15.291 15.6932 15.4473 15.5265C15.6036 15.3599 15.7925 15.2271 16.0023 15.1366C16.2121 15.046 16.4382 14.9995 16.6667 15H32.5C32.721 15 32.933 14.9122 33.0893 14.7559C33.2455 14.5997 33.3333 14.3877 33.3333 14.1667V5.83335C33.3333 5.61234 33.2455 5.40037 33.0893 5.24409C32.933 5.08781 32.721 5.00002 32.5 5.00002H17.3563C16.9184 4.99862 16.4846 5.08428 16.08 5.25201C15.6755 5.41975 15.3084 5.66622 15 5.9771L5.9771 15C5.66622 15.3084 5.41975 15.6755 5.25201 16.08C5.08428 16.4846 4.99862 16.9184 5.00002 17.3563V41.6667C5.00002 42.5507 5.35121 43.3986 5.97633 44.0237C6.60145 44.6488 7.44929 45 8.33335 45H41.6667C42.5507 45 43.3986 44.6488 44.0237 44.0237C44.6488 43.3986 45 42.5507 45 41.6667V8.33335C45 7.44929 44.6488 6.60145 44.0237 5.97633C43.3986 5.35121 42.5507 5.00002 41.6667 5.00002ZM25 36.6667C23.6815 36.6667 22.3925 36.2757 21.2962 35.5431C20.1999 34.8106 19.3454 33.7694 18.8408 32.5512C18.3362 31.3331 18.2042 29.9926 18.4614 28.6994C18.7187 27.4062 19.3536 26.2183 20.286 25.286C21.2183 24.3536 22.4062 23.7187 23.6994 23.4614C24.9926 23.2042 26.3331 23.3362 27.5512 23.8408C28.7694 24.3454 29.8106 25.1999 30.5431 26.2962C31.2757 27.3925 31.6667 28.6815 31.6667 30C31.6667 31.7681 30.9643 33.4638 29.7141 34.714C28.4638 35.9643 26.7681 36.6667 25 36.6667Z" fill="#3B9ADC"/>
</g>
</svg>
