<svg width="98" height="24" viewBox="0 0 98 24" fill="none" xmlns="http://www.w3.org/2000/svg">
<path d="M59.1149 14.9944C59.5118 14.9944 59.8812 14.9316 60.2229 14.806C60.5696 14.6753 60.8887 14.507 61.1802 14.3009L61.7982 15.1301C61.4515 15.4265 61.0344 15.6602 60.547 15.8311C60.0596 16.0019 59.5822 16.0873 59.1149 16.0873C58.3259 16.0873 57.6526 15.919 57.0948 15.5823C56.542 15.2406 56.1199 14.7632 55.8285 14.1502C55.537 13.5321 55.3913 12.8085 55.3913 11.9794C55.3913 11.1854 55.537 10.4744 55.8285 9.84622C56.1199 9.21809 56.5445 8.72312 57.1023 8.36131C57.6601 7.99448 58.336 7.81107 59.1299 7.81107C60.14 7.81107 61.0244 8.1176 61.7832 8.73066L61.1651 9.57487C60.4767 9.10251 59.7932 8.86633 59.1149 8.86633C58.4315 8.86633 57.8687 9.12512 57.4264 9.6427C56.9842 10.1553 56.7631 10.9341 56.7631 11.9794C56.7631 13.0396 56.9842 13.8085 57.4264 14.2859C57.8687 14.7582 58.4315 14.9944 59.1149 14.9944Z" fill="white"/>
<path d="M64.6452 15.914V14.9416H65.8814V8.94924H64.6452V7.9769H66.8462L67.0799 9.85376C67.3864 9.2005 67.7583 8.69548 68.1955 8.3387C68.6326 7.98192 69.2105 7.80353 69.9291 7.80353C70.1502 7.80353 70.3462 7.82112 70.517 7.85629C70.6929 7.88645 70.8713 7.92665 71.0522 7.9769L70.8713 10.6603H69.8311V8.97186C69.811 8.97186 69.7884 8.97186 69.7633 8.97186C68.5472 8.97186 67.6754 9.84119 67.1477 11.5799V14.9416H68.7608V15.914H64.6452Z" fill="white"/>
<path d="M76.6203 4.26086C76.9017 4.26086 77.1253 4.34629 77.2911 4.51714C77.462 4.68799 77.5474 4.89653 77.5474 5.14276C77.5474 5.39904 77.462 5.61512 77.2911 5.791C77.1253 5.96185 76.9017 6.04727 76.6203 6.04727C76.3539 6.04727 76.1354 5.96185 75.9645 5.791C75.7936 5.61512 75.7082 5.39904 75.7082 5.14276C75.7082 4.89653 75.7936 4.68799 75.9645 4.51714C76.1354 4.34629 76.3539 4.26086 76.6203 4.26086ZM77.6303 7.9769V14.9115H79.869V15.914H73.9143V14.9115H76.364V8.9794H73.9897V7.9769H77.6303Z" fill="white"/>
<path d="M86.2059 7.81107C86.9094 7.81107 87.4697 7.98192 87.8868 8.32363C88.3089 8.66533 88.6129 9.14774 88.7988 9.77084C88.9847 10.3889 89.0777 11.1125 89.0777 11.9417C89.0777 12.7407 88.9646 13.4542 88.7385 14.0823C88.5174 14.7055 88.1807 15.1954 87.7285 15.5522C87.2762 15.909 86.7059 16.0873 86.0174 16.0873C85.1481 16.0873 84.4496 15.7808 83.922 15.1678V18.9516L82.6557 19.1099V7.9769H83.7335L83.8391 9.08492C84.1305 8.67789 84.4773 8.36383 84.8793 8.14272C85.2813 7.92162 85.7235 7.81107 86.2059 7.81107ZM85.9044 8.82864C85.4672 8.82864 85.0803 8.96181 84.7436 9.22814C84.4069 9.48944 84.133 9.78089 83.922 10.1025V14.0371C84.128 14.3436 84.3868 14.5874 84.6984 14.7683C85.0149 14.9441 85.3617 15.0321 85.7385 15.0321C86.3968 15.0321 86.8918 14.7808 87.2235 14.2783C87.5551 13.7758 87.7209 12.9944 87.7209 11.9341C87.7209 9.86381 87.1154 8.82864 85.9044 8.82864Z" fill="white"/>
<path d="M98 15.5145C97.7286 15.6954 97.3995 15.8361 97.0126 15.9366C96.6256 16.0371 96.2463 16.0873 95.8744 16.0873C95.0201 16.0873 94.3619 15.8637 93.8995 15.4165C93.4372 14.9693 93.2061 14.3939 93.2061 13.6904V8.95678H91.382V7.9769H93.2061V6.17541L94.4724 6.02466V7.9769H97.2161L97.0653 8.95678H94.4724V13.6753C94.4724 14.1175 94.588 14.4542 94.8191 14.6854C95.0553 14.9165 95.4448 15.0321 95.9875 15.0321C96.2839 15.0321 96.5578 14.9969 96.8091 14.9266C97.0603 14.8562 97.294 14.7658 97.5101 14.6552L98 15.5145Z" fill="white"/>
<path d="M53.2609 16.1164V17.8317C53.2543 18.072 53.1555 18.306 52.9758 18.5074C52.8136 18.7154 52.5636 18.8795 52.263 18.9752L38.4001 23.7314C38.2907 23.7747 38.1682 23.7974 38.0437 23.7974C37.9192 23.7974 37.7967 23.7747 37.6874 23.7314C37.5869 23.679 37.5075 23.608 37.4574 23.5258C37.4073 23.4435 37.3882 23.353 37.4023 23.2635V21.1584C37.4082 20.9205 37.5135 20.6895 37.7041 20.4964C37.873 20.2992 38.114 20.1404 38.4001 20.0378L47.1669 17.2859C47.4268 17.2003 47.5589 17.0963 47.5589 16.9802C47.5589 16.864 47.4268 16.7554 47.1669 16.6744L38.4001 13.8813C38.1134 13.7794 37.8721 13.6204 37.7041 13.4226C37.5144 13.2303 37.4092 13.0006 37.4023 12.7637V10.6846C37.3887 10.5951 37.4079 10.5047 37.458 10.4225C37.5081 10.3403 37.5873 10.2693 37.6874 10.2167C37.7971 10.1742 37.9195 10.1519 38.0437 10.1519C38.168 10.1519 38.2904 10.1742 38.4001 10.2167L52.263 14.9728C52.5627 15.0696 52.8124 15.2335 52.9758 15.4407C53.155 15.6422 53.2537 15.8762 53.2609 16.1164Z" fill="#7E6FFF"/>
<path d="M53.2546 0.533315V2.61249C53.2489 2.85043 53.1435 3.08142 52.9527 3.27446C52.7757 3.4763 52.5213 3.63578 52.2211 3.7331L43.4899 6.51093C43.2104 6.59756 43.0707 6.69948 43.0707 6.81669C43.0707 6.9339 43.2104 7.03582 43.4899 7.12245L52.2211 9.87429C52.5213 9.97161 52.7757 10.1311 52.9527 10.3329C53.1435 10.526 53.2489 10.757 53.2546 10.9949V13.1123C53.2677 13.2029 53.2465 13.2945 53.1933 13.377C53.1401 13.4595 53.0569 13.5297 52.9527 13.5801C52.8462 13.6231 52.7264 13.6456 52.6047 13.6456C52.483 13.6456 52.3632 13.6231 52.2567 13.5801L38.3581 8.82401C38.0734 8.72098 37.8375 8.55802 37.681 8.35619C37.5006 8.15505 37.4017 7.9208 37.3959 7.68046V5.96515C37.4017 5.72481 37.5006 5.49056 37.681 5.28942C37.8375 5.08759 38.0734 4.92463 38.3581 4.8216L52.2567 0.0655016C52.3632 0.0225379 52.483 0 52.6047 0C52.7264 0 52.8462 0.0225379 52.9527 0.0655016C53.0569 0.115888 53.1401 0.186145 53.1933 0.268629C53.2465 0.351112 53.2677 0.442662 53.2546 0.533315Z" fill="#7E6FFF"/>
<path d="M35.0275 16.6306C34.877 16.8407 34.722 17.0465 34.5626 17.2479C34.4042 17.4486 34.2333 17.6393 34.0509 17.819C33.5315 18.3582 32.9347 18.819 32.2795 19.1868C31.9598 19.3828 31.6258 19.5552 31.2803 19.7025C30.9265 19.8549 30.5622 19.9823 30.1901 20.0837C29.4358 20.2908 28.6566 20.3964 27.8737 20.3976C26.7252 20.4044 25.5879 20.1754 24.5339 19.7249C22.4713 18.8544 20.8281 17.232 19.9464 15.1955C19.4964 14.1529 19.2645 13.0313 19.2645 11.898C19.2645 10.7648 19.4964 9.64316 19.9464 8.60056C20.3928 7.59619 21.0155 6.67766 21.7859 5.88739C22.5868 5.12713 23.5176 4.51269 24.5352 4.07246C25.5892 3.62204 26.7266 3.39296 27.875 3.39978C28.6579 3.40166 29.437 3.50724 30.1915 3.7137C30.9239 3.91302 31.6265 4.20706 32.2809 4.58819C32.6098 4.7797 32.9249 4.99345 33.224 5.2279C33.5138 5.45501 33.7903 5.69809 34.0523 5.95598C34.4129 6.3222 34.7397 6.71947 35.0288 7.14308C35.0797 7.21171 35.1126 7.29173 35.1245 7.37598C35.1364 7.46023 35.1269 7.54607 35.097 7.62583C35.0648 7.70582 35.0158 7.77814 34.9532 7.83796C34.8905 7.89778 34.8156 7.94372 34.7336 7.97272L33.053 8.64805C32.8779 8.72468 32.6807 8.73685 32.4973 8.68234C32.3048 8.63742 32.1328 8.53073 32.0083 8.37897C31.9335 8.30511 31.8574 8.22597 31.7812 8.14419C31.7051 8.06241 31.6303 7.98327 31.5541 7.90809C31.3932 7.74868 31.2228 7.59892 31.0438 7.45963C30.8656 7.32221 30.6796 7.19494 30.4867 7.07845C30.2903 6.95927 30.0854 6.85436 29.8735 6.76452C29.6625 6.67659 29.4505 6.59437 29.2376 6.51787C28.796 6.3823 28.3361 6.31381 27.8737 6.31475C27.1371 6.31337 26.4086 6.46622 25.7362 6.76321C25.0928 7.06129 24.5143 7.48016 24.0329 7.99646C23.5499 8.51938 23.1585 9.11803 22.8747 9.76787C22.587 10.442 22.4403 11.1665 22.4432 11.898C22.4371 12.6298 22.584 13.355 22.8747 14.0282C23.1578 14.6785 23.5493 15.2772 24.0329 15.7996C24.5245 16.3213 25.118 16.7393 25.7776 17.0283C26.4373 17.3173 27.1494 17.4714 27.871 17.4813C28.3329 17.4826 28.7924 17.4145 29.2336 17.2795C29.446 17.2057 29.6585 17.1226 29.8695 17.0329C30.0816 16.9436 30.2866 16.8386 30.4827 16.719C30.678 16.6008 30.8642 16.4685 31.0398 16.3233C31.2135 16.1808 31.3845 16.0278 31.5501 15.8629C31.6263 15.7891 31.7024 15.7099 31.7772 15.6282C31.852 15.5464 31.9295 15.4672 32.0043 15.3921C32.1306 15.2402 32.3014 15.1305 32.4933 15.0781C32.675 15.0179 32.8728 15.0259 33.049 15.1006L34.7296 15.7732C34.8127 15.8038 34.8882 15.8516 34.9509 15.9135C35.0136 15.9754 35.062 16.0499 35.0929 16.132C35.1249 16.2139 35.1357 16.3024 35.1242 16.3895C35.1128 16.4766 35.0796 16.5594 35.0275 16.6306Z" fill="#7E6FFF"/>
<path d="M16.9981 11.8205C16.9835 12.1196 16.9715 12.4173 16.9648 12.7163C16.967 12.8886 16.9554 13.0609 16.9302 13.2314C16.8563 14.2343 16.5711 15.2107 16.0928 16.0979C15.6274 16.9569 15.0059 17.7237 14.2594 18.3597C13.5004 19.0132 12.6255 19.522 11.6792 19.8602C10.6937 20.2193 9.65122 20.4013 8.60098 20.3976C7.45641 20.4044 6.32291 20.1756 5.27249 19.7258C3.21729 18.8484 1.57552 17.2315 0.679162 15.2021C0.224507 14.1628 -0.00672654 13.0413 0.000148943 11.9088C-0.00305047 10.2076 0.513989 8.5452 1.48333 7.14009C1.79192 6.69073 2.14227 6.27087 2.52981 5.886C3.32887 5.12556 4.25793 4.51139 5.27382 4.07205C6.32424 3.6222 7.45774 3.39341 8.60232 3.40021C10.0426 3.38317 11.4625 3.73825 12.7217 4.43036C13.7346 4.97412 14.6213 5.72171 15.3245 6.62502C15.3826 6.69194 15.4241 6.77128 15.4458 6.85678C15.4675 6.94227 15.4688 7.0316 15.4497 7.1177C15.4313 7.20576 15.3945 7.28907 15.3418 7.36232C15.2891 7.43557 15.2216 7.49717 15.1435 7.54319L13.6044 8.46532C13.5269 8.51625 13.4394 8.55053 13.3477 8.56596C13.256 8.58139 13.162 8.57762 13.0718 8.5549C12.8877 8.51396 12.7188 8.42267 12.5845 8.29143C12.3755 8.05532 12.1533 7.83102 11.9188 7.6196C11.6787 7.40659 11.4168 7.21895 11.1373 7.05974C10.3775 6.59352 9.50169 6.34542 8.60764 6.34311C7.88185 6.3432 7.16436 6.49587 6.5027 6.791C5.85374 7.08685 5.26941 7.50525 4.78253 8.0227C4.28873 8.53852 3.88714 9.13365 3.59493 9.78264C3.30948 10.4562 3.16456 11.1798 3.16888 11.9101C3.16168 12.6407 3.30671 13.3649 3.59493 14.0376C3.88434 14.6889 4.28369 15.2867 4.77588 15.8054C5.2578 16.3228 5.84373 16.7347 6.49604 17.0147C7.15168 17.3299 7.87208 17.4909 8.60098 17.485C9.1627 17.4886 9.7211 17.3995 10.2533 17.2216C10.7721 17.0617 11.2613 16.8197 11.7018 16.5049C12.1404 16.1902 12.5294 15.8128 12.8561 15.3852C13.0441 15.1443 13.1965 14.8782 13.3088 14.5948C13.3536 14.5259 13.3765 14.4453 13.3746 14.3633C13.3727 14.2814 13.3461 14.2019 13.2982 14.1351C13.2452 14.0708 13.1774 14.0201 13.1005 13.987C13.0236 13.954 12.9398 13.9398 12.8561 13.9454H8.14831C8.05592 13.9463 7.96428 13.9289 7.87875 13.8943C7.79322 13.8598 7.71552 13.8087 7.65019 13.744C7.58486 13.6794 7.53321 13.6025 7.49826 13.5179C7.46331 13.4332 7.44577 13.3426 7.44666 13.2512V11.8205C7.44577 11.7291 7.46331 11.6385 7.49826 11.5538C7.53321 11.4692 7.58486 11.3923 7.65019 11.3277C7.71552 11.263 7.79322 11.2119 7.87875 11.1774C7.96428 11.1428 8.05592 11.1254 8.14831 11.1263H16.2965C16.3889 11.1254 16.4805 11.1428 16.566 11.1774C16.6516 11.2119 16.7293 11.263 16.7946 11.3277C16.8599 11.3923 16.9116 11.4692 16.9465 11.5538C16.9815 11.6385 16.999 11.7291 16.9981 11.8205Z" fill="#7E6FFF"/>
</svg>
