<svg width="50" height="50" viewBox="0 0 50 50" fill="none" xmlns="http://www.w3.org/2000/svg">
<g id="icons">
<path id="browser" d="M25 5C21.0444 5 17.1776 6.17298 13.8886 8.37061C10.5996 10.5682 8.03617 13.6918 6.52242 17.3463C5.00867 21.0008 4.6126 25.0222 5.3843 28.9018C6.15601 32.7814 8.06082 36.3451 10.8579 39.1421C13.6549 41.9392 17.2186 43.844 21.0982 44.6157C24.9778 45.3874 28.9991 44.9913 32.6537 43.4776C36.3082 41.9638 39.4318 39.4004 41.6294 36.1114C43.827 32.8224 45 28.9556 45 25C44.9944 19.6974 42.8855 14.6136 39.136 10.864C35.3864 7.11453 30.3026 5.0056 25 5ZM25 8.07692C27.8165 8.07809 30.5882 8.78221 33.0638 10.1254C35.5394 11.4687 37.6406 13.4086 39.1769 15.7692H25C23.0569 15.7714 21.1638 16.3857 19.5896 17.5249C18.0155 18.6641 16.8402 20.2703 16.2308 22.1154L11.7923 14.4231C13.3765 12.442 15.3863 10.8429 17.6727 9.74428C19.9591 8.6457 22.4634 8.07583 25 8.07692ZM8.07693 25C8.07373 22.3353 8.70387 19.708 9.91539 17.3346L17.0058 29.6154C17.0173 29.6346 17.0308 29.6519 17.0423 29.6692C18.0195 31.3366 19.4955 32.6551 21.262 33.439C23.0285 34.2229 24.9965 34.4326 26.8885 34.0385L22.4462 41.7308C18.4489 41.115 14.8035 39.0901 12.1684 36.022C9.53326 32.9538 8.08209 29.0444 8.07693 25ZM25.9019 41.8981L32.9942 29.6154C33.0096 29.5885 33.0212 29.5615 33.0365 29.5346C33.988 27.8567 34.3885 25.9223 34.1815 24.0045C33.9745 22.0867 33.1704 20.2824 31.8827 18.8462H40.7692C41.7426 21.3402 42.1104 24.0296 41.8423 26.6935C41.5743 29.3573 40.678 31.9196 39.2272 34.1697C37.7763 36.4198 35.8124 38.2936 33.4966 39.6371C31.1808 40.9806 28.5793 41.7555 25.9058 41.8981H25.9019Z" fill="#3B9ADC"/>
</g>
</svg>
