<svg width="100" height="100" viewBox="0 0 100 100" fill="none" xmlns="http://www.w3.org/2000/svg">
<path d="M80.9226 18.3407C80.9138 18.3173 80.8971 18.2976 80.8753 18.285C80.8535 18.2724 80.8281 18.2677 80.8036 18.2719C80.7791 18.276 80.7571 18.2887 80.7415 18.3076C80.726 18.3265 80.7178 18.3505 80.7186 18.3752C80.7042 20.9012 80.9312 23.4933 80.1725 25.9647C80.1656 25.9895 80.152 26.012 80.1333 26.0296C80.1145 26.0472 80.0913 26.0593 80.0661 26.0646C80.0409 26.07 80.0148 26.0683 79.9905 26.0598C79.9662 26.0513 79.9447 26.0363 79.9283 26.0165C74.6578 19.7383 68.5712 14.3663 61.6685 9.9005C61.5938 9.8526 61.5372 9.86889 61.4989 9.94935C61.4721 10.003 61.4826 10.049 61.5305 10.0873C67.5769 14.8711 72.9374 20.3312 77.612 26.4677C77.6319 26.4938 77.6428 26.5256 77.6431 26.5584C77.6434 26.5913 77.6331 26.6233 77.6137 26.6498C77.5943 26.6763 77.5669 26.6958 77.5355 26.7054C77.5042 26.7151 77.4705 26.7143 77.4396 26.7033C72.7018 24.9925 67.8298 23.8468 62.8237 23.2663C62.7752 23.2593 62.7258 23.2711 62.6857 23.2993C62.6455 23.3275 62.6177 23.37 62.6078 23.418C62.5979 23.4661 62.6067 23.5161 62.6324 23.5578C62.6581 23.5996 62.6988 23.63 62.7461 23.6428C66.5366 24.8066 70.0598 25.6573 74.2526 27.1114C76.9741 28.054 79.8363 29.2753 81.2588 31.6347C83.0578 34.6119 85.6183 38.911 86.8684 42.6555C86.9201 42.8126 86.8751 42.848 86.7333 42.7618C82.9131 40.4226 78.8774 38.5776 74.6262 37.227C71.6059 36.2671 69.2322 35.5487 66.4159 35.3016C66.3744 35.2981 66.333 35.3097 66.2995 35.3344C66.2659 35.359 66.2424 35.395 66.2333 35.4357C66.2242 35.4763 66.2301 35.5189 66.2499 35.5555C66.2697 35.5921 66.3022 35.6203 66.3412 35.6349C73.5601 38.3449 80.6525 41.0002 86.8713 45.6873C88.1213 46.6299 88.5208 47.673 88.8886 49.5611C89.7795 54.1342 89.9596 58.7398 89.4289 63.3781C89.4271 63.3972 89.4198 63.4154 89.4079 63.4305C89.3961 63.4457 89.3801 63.4571 89.362 63.4634C89.3438 63.4698 89.3243 63.4708 89.3056 63.4664C89.2869 63.4619 89.2698 63.4522 89.2565 63.4384C84.966 59.1565 80.2415 56.8403 74.6837 54.6419C71.899 53.5412 68.8442 52.3285 65.8728 51.9204C65.8331 51.9166 65.7933 51.9269 65.7605 51.9495C65.7276 51.9721 65.7038 52.0056 65.6932 52.044C65.6825 52.0824 65.6858 52.1233 65.7023 52.1596C65.7189 52.1959 65.7477 52.2252 65.7837 52.2423C71.8042 54.7827 77.6753 57.3317 83.1181 60.9526C84.9056 62.1395 87.6127 64.1195 88.5639 66.0736C89.0754 67.1197 87.9173 69.8727 90.1646 69.5538C90.1961 69.5498 90.2281 69.5545 90.2572 69.5674C90.2862 69.5803 90.3112 69.6008 90.3295 69.6267C90.3478 69.6527 90.3587 69.6832 90.361 69.7149C90.3634 69.7466 90.357 69.7783 90.3427 69.8066C86.2773 77.6232 80.572 83.8736 73.2267 88.5578C71.968 89.3606 70.6499 90.0426 69.2724 90.604C69.1613 90.648 69.0847 90.6145 69.0425 90.5034L68.3155 88.5377C68.2893 88.468 68.2919 88.3907 68.3226 88.3229C68.3533 88.255 68.4096 88.2021 68.4793 88.1756C70.6748 87.325 73.2641 86.1755 74.7469 84.5087C79.5892 79.0659 73.6836 72.3557 69.7811 68.6744C65.0365 64.2028 59.95 60.2974 57.8895 53.7826C56.6739 49.949 56.8262 44.9114 57.3607 40.8651C58.4355 32.7554 59.2114 27.8154 59.1712 22.2576C59.1367 17.6108 56.9843 13.3978 54.0071 10.0586C52.8432 8.751 50.6189 7.08997 49.1591 5.26802C49.1395 5.24403 49.1272 5.21501 49.1234 5.18431C49.1197 5.1536 49.1248 5.12247 49.138 5.09451C49.1512 5.06655 49.1721 5.0429 49.1982 5.02631C49.2243 5.00972 49.2546 5.00086 49.2855 5.00076C68.6201 4.89155 85.5091 16.605 92.1877 34.7728C92.2183 34.8609 92.2241 34.95 92.2049 35.04C91.6733 37.454 90.9232 40.345 89.5783 42.3968C89.5589 42.4268 89.5316 42.4507 89.4994 42.4661C89.4671 42.4814 89.4313 42.4874 89.3958 42.4835C89.3604 42.4797 89.3267 42.466 89.2985 42.4441C89.2703 42.4222 89.2488 42.3929 89.2364 42.3595C87.3933 37.3783 84.9094 32.741 81.7847 28.4477C81.7234 28.3634 81.6937 28.2685 81.6956 28.1632C81.7876 25.5097 81.6832 22.8707 81.3824 20.246C81.3058 19.5831 81.1525 18.948 80.9226 18.3407Z" fill="#3B9ADC"/>
<path d="M92.6906 35.8533C93.0833 36.6695 93.3592 37.4875 93.5182 38.3075C93.6926 39.1964 93.7836 39.6553 93.7912 39.684C95.2166 45.7112 95.3814 51.7538 94.2855 57.8116C93.7309 60.8693 93.0958 63.585 91.9348 66.3064C91.9288 66.3225 91.9174 66.3357 91.9025 66.3437C91.8876 66.3517 91.8702 66.3541 91.8534 66.3503C91.8366 66.3465 91.8214 66.3369 91.8106 66.3231C91.7997 66.3093 91.7938 66.2922 91.794 66.2748C91.8093 64.2402 91.8706 62.2056 91.9779 60.171C92.2059 55.8584 91.8265 51.6024 90.8399 47.4029C90.7451 47.0063 90.7249 46.4517 90.8916 46.0063C92.1934 42.5348 92.2883 39.4829 92.5067 35.8878C92.522 35.6407 92.5833 35.6292 92.6906 35.8533Z" fill="#3B9ADC"/>
<path d="M13.4613 36.7327C13.0303 36.5181 12.6021 36.3045 12.1768 36.0918C12.0695 36.0382 12.0159 35.951 12.0159 35.8303L12.0331 34.1837C12.0322 34.1516 12.0204 34.1208 11.9996 34.0963C11.9788 34.0719 11.9503 34.0553 11.9188 34.0492C11.8873 34.0432 11.8547 34.0481 11.8263 34.0632C11.798 34.0782 11.7756 34.1025 11.763 34.1319C5.67924 49.2105 8.8691 66.7547 20.2348 78.3561C32.0631 90.4287 49.7712 94.3197 65.5394 87.9802C65.6409 87.94 65.7109 87.9707 65.7492 88.0722L66.9332 91.1988C66.9657 91.2812 66.9408 91.3387 66.8585 91.3713C40.7246 102.033 11.4181 85.9686 5.91201 58.7571C0.529481 32.1548 19.6025 7.30551 46.498 5.05249C46.5937 5.04483 46.6598 5.08506 46.6962 5.17319C47.2154 6.43381 47.9913 7.50955 49.024 8.40041C49.0418 8.41583 49.0547 8.43626 49.0608 8.45906C49.0669 8.48185 49.066 8.50596 49.0583 8.52826C49.0506 8.55055 49.0363 8.57001 49.0174 8.58411C48.9984 8.5982 48.9757 8.60629 48.9521 8.60732C40.5723 8.87362 32.9731 11.4025 26.1547 16.194C25.8884 16.3799 25.9171 16.4823 26.2409 16.5015C26.8185 16.5389 27.3674 16.4297 27.9537 16.6538C28.7123 16.9431 29.4882 17.1701 30.2814 17.3349C30.3772 17.356 30.4414 17.4134 30.4739 17.5073L30.6176 17.9183C30.6502 18.0141 30.7172 18.0639 30.8188 18.0677L33.1149 18.151C33.1364 18.1517 33.1578 18.1469 33.177 18.1372C33.1963 18.1275 33.2128 18.1132 33.225 18.0955C33.2373 18.0778 33.245 18.0573 33.2473 18.0359C33.2497 18.0145 33.2466 17.9928 33.2385 17.9729L33.0459 17.5044C33.0057 17.4048 32.9329 17.3473 32.8275 17.332C32.1857 17.2362 31.5411 17.2037 30.8935 17.2343C30.8676 17.2357 30.8419 17.2301 30.8189 17.2181C30.796 17.2061 30.7767 17.1881 30.7631 17.166C30.7496 17.1439 30.7423 17.1185 30.7419 17.0926C30.7416 17.0667 30.7483 17.0412 30.7613 17.0188L31.0027 16.6193C31.0334 16.5676 31.0502 16.5087 31.0516 16.4486C31.053 16.3884 31.0388 16.3289 31.0105 16.2758C30.9822 16.2227 30.9408 16.1777 30.8901 16.1453C30.8394 16.1128 30.7812 16.094 30.7211 16.0906L28.9796 15.9871C28.8531 15.9794 28.8388 15.9344 28.9365 15.852C29.4538 15.4325 29.9768 15.0301 30.5055 14.6451C31.3332 14.0445 32.3275 14.168 33.2816 14.2284C33.3195 14.2311 33.3563 14.2417 33.3895 14.2595C33.4227 14.2774 33.4516 14.302 33.4741 14.3318L34.3276 15.4353C34.3823 15.5069 34.4556 15.5633 34.5403 15.5991C35.5078 16.0072 36.3354 15.8817 37.0232 15.2227C37.3307 14.9267 37.6842 14.76 38.0233 15.0416C38.0999 15.1029 38.1124 15.1767 38.0606 15.2629C37.392 16.3875 36.4025 16.8435 35.092 16.6308C34.9733 16.6117 34.9158 16.6615 34.9196 16.7803L34.957 17.9183C34.9577 17.9643 34.9765 18.0081 35.0093 18.0404C35.0421 18.0726 35.0863 18.0907 35.1323 18.0907H37.3135C37.3552 18.0907 37.3959 18.0773 37.4296 18.0525C37.4632 18.0276 37.488 17.9927 37.5002 17.9527C37.9198 16.5791 39.8021 18.1194 39.6814 16.3664C39.6738 16.2745 39.6268 16.2141 39.5406 16.1854L38.9659 15.9957C38.8796 15.967 38.8394 15.9066 38.8452 15.8147C38.9314 14.5387 41.2821 14.898 42.0982 14.9727C42.1469 14.9777 42.1929 14.9972 42.2303 15.0287C42.2678 15.0601 42.2949 15.1021 42.3082 15.1492C42.3215 15.1962 42.3204 15.2462 42.305 15.2926C42.2896 15.339 42.2606 15.3797 42.2218 15.4095L41.2476 16.1394C41.1652 16.2007 41.1279 16.2821 41.1355 16.3837L41.2016 17.2113C41.2131 17.332 41.2783 17.4019 41.397 17.4211L42.7276 17.6395C42.8272 17.6548 42.8761 17.6127 42.8742 17.5131L42.8368 15.967C42.8349 15.8635 42.8742 15.7792 42.9546 15.7141C43.492 15.2744 44.1472 15.1365 44.6961 14.9468C46.9348 14.1651 48.797 15.4411 50.7022 16.3291C50.7827 16.3674 50.8229 16.4306 50.8229 16.5187V17.6395C50.8229 17.7545 50.8775 17.8292 50.9868 17.8637L51.8201 18.128C51.9198 18.1587 51.9456 18.221 51.8977 18.3148L51.481 19.1109C51.4554 19.1595 51.4179 19.2012 51.3718 19.2322C51.3257 19.2633 51.2725 19.2828 51.2166 19.289C50.776 19.335 50.3402 19.3293 49.9091 19.2718C49.7884 19.2565 49.7051 19.3044 49.6591 19.4155L49.205 20.5133C49.1686 20.6033 49.1025 20.6359 49.0067 20.611L45.6416 19.7488C45.614 19.7413 45.5893 19.7257 45.5706 19.7041C45.5519 19.6824 45.5402 19.6557 45.5368 19.6273C45.5334 19.5989 45.5385 19.5701 45.5516 19.5447C45.5646 19.5193 45.5849 19.4983 45.61 19.4845L48.159 18.1166C48.2797 18.0533 48.2864 17.9805 48.1791 17.8981L47.2509 17.1883C47.1704 17.1251 47.0794 17.0935 46.9779 17.0935C46.2249 17.0878 45.4816 17.1634 44.7478 17.3205C43.7047 17.5476 43.7305 18.7976 42.3655 18.5016C42.3154 18.4904 42.2631 18.4945 42.2154 18.5134C42.1677 18.5323 42.1267 18.5651 42.0979 18.6075C42.0691 18.65 42.0537 18.7002 42.0538 18.7515C42.0538 18.8028 42.0693 18.8529 42.0982 18.8953L42.5121 19.5103C42.5262 19.5316 42.5335 19.5567 42.5331 19.5823C42.5327 19.6079 42.5245 19.6327 42.5096 19.6532C42.4948 19.6737 42.4741 19.6889 42.4503 19.6968C42.4266 19.7047 42.4009 19.7048 42.377 19.6971C41.8846 19.5534 41.5886 19.7191 41.489 20.1943C41.4679 20.2958 41.4057 20.3504 41.3022 20.3581L40.6384 20.4041C40.5782 20.4081 40.5186 20.3886 40.4721 20.3495C40.4256 20.3105 40.3956 20.2549 40.3884 20.1943L40.3022 19.3638C40.2998 19.3437 40.293 19.3244 40.2822 19.3073C40.2715 19.2903 40.257 19.2758 40.2399 19.265C40.2228 19.2543 40.2035 19.2475 40.1835 19.2452C40.1634 19.2429 40.1431 19.2451 40.124 19.2517C38.1986 19.904 36.7588 20.7633 35.0374 21.8208C34.9589 21.8687 34.9187 21.9386 34.9167 22.0306C34.8938 24.1687 36.618 24.0221 38.1555 24.3468C38.2666 24.3717 38.3221 24.4407 38.3221 24.5537V26.4303C38.3221 26.4604 38.3282 26.4901 38.34 26.5177C38.3518 26.5454 38.3692 26.5703 38.391 26.591C38.4127 26.6117 38.4385 26.6277 38.4667 26.6382C38.4949 26.6486 38.5249 26.6531 38.5549 26.6516C39.5004 26.6085 39.782 25.5021 40.1498 24.821C40.1882 24.7482 40.2476 24.6994 40.328 24.6744L42.1557 24.0968C42.2362 24.0719 42.2774 24.0164 42.2793 23.9301L42.2965 21.3323C42.2966 21.2883 42.308 21.2451 42.3297 21.2069C42.3513 21.1686 42.3825 21.1366 42.4201 21.1139L43.515 20.4357C43.5558 20.4102 43.6013 20.3932 43.6488 20.3858C43.6962 20.3784 43.7445 20.3807 43.7909 20.3926L46.2796 21.0018C46.3773 21.0267 46.4223 21.089 46.4146 21.1886L46.3083 22.772C46.3067 22.7993 46.3115 22.8267 46.3222 22.8518C46.3329 22.877 46.3493 22.8992 46.3699 22.9168C46.3906 22.9344 46.415 22.9469 46.4413 22.9532C46.4675 22.9595 46.4948 22.9594 46.5209 22.9531C47.3294 22.7691 48.0852 22.4502 48.7883 21.9961C48.832 21.9678 48.8825 21.9517 48.9345 21.9495C48.9865 21.9474 49.0382 21.9593 49.084 21.984C49.1298 22.0087 49.1682 22.0452 49.1951 22.0898C49.2219 22.1344 49.2363 22.1854 49.2366 22.2375L49.251 24.0164C49.2511 24.0559 49.2612 24.0948 49.2802 24.1295C49.2993 24.1641 49.3268 24.1934 49.3602 24.2146L50.6706 25.0739C50.7175 25.1048 50.7559 25.1467 50.7825 25.1958C50.809 25.245 50.8229 25.2998 50.8229 25.3555V26.4533C50.8229 26.5759 50.7655 26.6592 50.6505 26.7033L49.6763 27.0683C49.6115 27.0932 49.5554 27.1363 49.5146 27.1925C49.4738 27.2486 49.4501 27.3154 49.4465 27.3847C49.4428 27.454 49.4593 27.5229 49.494 27.583C49.5287 27.6431 49.58 27.6919 49.6418 27.7235L51.1132 28.462C51.2205 28.5157 51.2674 28.6019 51.254 28.7207L51.185 29.35C51.1826 29.3738 51.1749 29.3968 51.1627 29.4174C51.1504 29.4379 51.1337 29.4556 51.1138 29.4693C51.0939 29.4829 51.0712 29.4921 51.0473 29.4964C51.0234 29.5006 50.9988 29.4997 50.9753 29.4937L48.4923 28.8299C48.3831 28.8011 48.3276 28.7303 48.3257 28.6172L48.3084 28.0971C48.3046 27.9706 48.3621 27.8854 48.4808 27.8413C48.8927 27.6861 49.046 27.4131 48.9406 27.0223C48.919 26.9447 48.8754 26.8751 48.8151 26.8217C48.7547 26.7684 48.6802 26.7337 48.6006 26.7219C48.5209 26.71 48.4395 26.7215 48.3662 26.7549C48.293 26.7884 48.231 26.8423 48.1877 26.9102L48.0009 27.2033C47.9511 27.2845 47.8718 27.3432 47.7796 27.3671C47.3275 27.4783 46.8648 27.5472 46.3916 27.5741C46.292 27.5798 46.2115 27.5424 46.1502 27.462C46.0238 27.2953 45.9548 27.1028 45.8169 26.9648C45.1013 26.2464 43.6443 26.9275 44.2823 27.7235C44.3302 27.7829 44.3905 27.8241 44.4633 27.8471L45.2709 28.0827C45.2977 28.0907 45.3221 28.1053 45.3419 28.1252C45.3616 28.145 45.376 28.1696 45.3837 28.1965C45.3914 28.2234 45.3923 28.2519 45.3861 28.2792C45.3799 28.3065 45.367 28.3318 45.3485 28.3528L44.949 28.7983C44.8705 28.8864 44.789 28.8893 44.7047 28.8069C43.926 28.0482 43.1156 28.9764 42.5897 29.511C42.3052 29.7983 42.0034 30.5915 41.6873 30.7294C39.7485 31.5686 38.188 32.8618 37.006 34.609C36.9516 34.6878 36.9216 34.7808 36.9198 34.8763C36.9063 35.3801 36.6716 35.7594 36.2157 36.0143C35.0528 36.6656 34.0307 37.4866 33.1494 38.4771C33.1015 38.5307 33.0775 38.593 33.0775 38.6638V40.9312C33.0775 41.027 33.0344 41.0529 32.9482 41.0088L31.5746 40.2961C31.475 40.2444 31.4251 40.163 31.4251 40.0519V38.9397C31.4251 38.842 31.3763 38.7922 31.2786 38.7903C28.6491 38.7501 25.0454 38.2874 23.4534 41.0606C22.8815 42.0606 22.3297 43.2331 22.6717 44.282C23.0051 45.3137 24.0655 45.5608 25.0052 45.3827C25.9966 45.1959 27.2438 44.1671 28.1347 43.5521C28.2133 43.4965 28.2813 43.5071 28.3387 43.5837C28.9135 44.3711 28.083 45.3367 27.8416 46.1356C27.8109 46.2371 27.8483 46.2965 27.9537 46.3138L29.8187 46.6184C29.885 46.6293 29.9456 46.662 29.9905 46.711C30.0354 46.7601 30.062 46.8227 30.0659 46.8885L30.29 50.1876C30.2934 50.246 30.3169 50.3016 30.3566 50.345C30.3964 50.3884 30.4499 50.417 30.5084 50.4261L33.4741 50.9003C33.5948 50.9194 33.6944 50.8821 33.773 50.7882L35.5892 48.6099C35.6582 48.5275 35.7453 48.4978 35.8507 48.5208L38.0779 49.0065C38.1813 49.0295 38.2656 49.0821 38.3308 49.1645C38.576 49.4672 38.8078 49.7776 39.0262 50.0956C39.0894 50.1857 39.1766 50.2288 39.2877 50.2249L41.3338 50.1473C41.4411 50.1435 41.511 50.0918 41.5436 49.9922L41.6614 49.6358C41.694 49.5362 41.7591 49.5046 41.8569 49.541C43.2219 50.0496 43.6472 51.0037 44.2765 52.0957C44.3359 52.1979 44.421 52.2828 44.5233 52.3418C44.6257 52.4008 44.7418 52.4319 44.8599 52.432H46.7537C46.8687 52.432 46.9645 52.4741 47.0411 52.5584C48.0843 53.6936 47.9837 54.5269 48.1676 55.9782C48.181 56.0797 48.2337 56.1554 48.3257 56.2052C50.1304 57.1708 52.0625 57.5607 54.122 57.3748C54.9353 57.3001 55.0933 58.0157 55.4554 58.5732C55.8779 59.2284 56.3722 59.3721 57.0906 59.4842C57.1825 59.4976 57.2295 59.5512 57.2314 59.6451C57.286 61.6481 55.5043 62.1941 55.2025 64.0074C54.8807 65.9472 55.4985 68.2031 53.3691 69.2348C52.6392 69.5883 51.7655 69.4532 50.9264 69.4618C50.8229 69.4618 50.7415 69.503 50.6821 69.5854C49.4809 71.232 51.162 72.8873 50.1074 74.0541C49.2184 75.0388 48.4262 76.0915 47.7308 77.2123C46.8054 78.698 45.0208 79.359 43.3455 79.5084C43.2324 79.518 43.1749 79.5793 43.173 79.6923L43.1615 80.132C43.1577 80.2489 43.2123 80.3236 43.3253 80.3562L44.0438 80.5602C44.0871 80.5737 44.1236 80.6029 44.1461 80.6419C44.1685 80.6809 44.1751 80.7267 44.1645 80.77C44.0361 81.27 43.7631 81.6743 43.3455 81.9827C43.265 82.0421 43.2209 82.1216 43.2133 82.2212C43.1558 82.9138 43.9949 83.0719 44.5179 83.115C44.5692 83.1191 44.619 83.1341 44.664 83.1592C44.7089 83.1842 44.748 83.2186 44.7785 83.26C44.809 83.3014 44.8303 83.3489 44.8409 83.3992C44.8514 83.4496 44.8511 83.5016 44.8398 83.5518L44.3915 85.5059C44.3786 85.5595 44.381 85.6156 44.3982 85.6678C44.4155 85.7201 44.447 85.7666 44.4892 85.8019L45.9146 87.0175C45.9917 87.0832 46.0486 87.1693 46.0789 87.2659C46.1092 87.3626 46.1116 87.4658 46.0857 87.5637C46.0599 87.6616 46.0069 87.7502 45.9329 87.8194C45.8589 87.8885 45.7669 87.9353 45.6674 87.9544C44.6501 88.1412 43.6903 88.0981 42.8311 87.4026C41.1298 86.0194 39.8941 84.2817 39.1239 82.1896C39.0894 82.0958 39.0827 82.0009 39.1038 81.9051C39.2724 81.1196 39.3711 80.3255 39.3998 79.5228C39.4036 79.4232 39.3787 79.3322 39.3251 79.2498L38.0807 77.2956C38.0233 77.2037 38.0032 77.1031 38.0204 76.9939C38.1794 76.0781 38.349 75.1652 38.529 74.2552C38.5559 74.1173 38.5003 74.0406 38.3624 74.0253L37.9112 73.9707C37.802 73.9573 37.7474 73.896 37.7474 73.7868V67.0766C37.7474 66.9866 37.7167 66.909 37.6554 66.8438C36.6707 65.8131 35.4944 65.0956 34.1265 64.6914C34.0797 64.6781 34.037 64.6529 34.0023 64.6183C33.9676 64.5836 33.9421 64.5405 33.9282 64.4931C33.3563 62.5102 32.0056 61.1653 30.6808 59.6508C30.6138 59.5761 30.5879 59.4889 30.6033 59.3893C30.7718 58.305 30.8696 57.2254 30.8964 56.1506C30.9136 55.5385 32.4252 54.7252 32.9166 54.3775C32.9551 54.3514 32.9859 54.3155 33.0061 54.2737C33.0263 54.2318 33.0351 54.1853 33.0316 54.139L32.8563 51.8773C32.8486 51.7969 32.8055 51.748 32.727 51.7308C31.6953 51.5181 30.0342 51.7049 29.5026 51.1273C28.698 50.2556 27.8684 49.4098 27.0139 48.5898C26.9488 48.5285 26.8731 48.4882 26.7869 48.4691L24.5339 47.9863C24.4825 47.9752 24.4373 47.9449 24.4074 47.9017C24.3775 47.8585 24.3652 47.8055 24.373 47.7535L24.4678 47.0609C24.471 47.0402 24.4699 47.019 24.4647 46.9986C24.4595 46.9782 24.4502 46.959 24.4373 46.9422C24.4245 46.9253 24.4084 46.9111 24.3899 46.9004C24.3715 46.8897 24.351 46.8828 24.3299 46.8799L23.1976 46.7305C23.1095 46.719 23.052 46.7563 23.0252 46.8425L22.9418 47.1069C22.9112 47.2027 22.847 47.2401 22.7493 47.219C21.9044 47.0447 21.0682 46.8492 20.2405 46.6328C19.1427 46.3454 18.5076 45.2217 18.0593 44.2734C18.0191 44.191 18.0191 44.1077 18.0593 44.0234L18.4042 43.3251C18.4425 43.2484 18.4473 43.1699 18.4186 43.0894C18.2002 42.507 18.0076 42.1277 17.8409 41.9514C16.6838 40.7387 16.0372 39.2932 15.9012 37.6149C15.8935 37.5191 15.8427 37.4626 15.7489 37.4454L15.3465 37.3735C15.2912 37.3641 15.2344 37.3678 15.1808 37.3842C15.1271 37.4007 15.0781 37.4295 15.0376 37.4683C14.9971 37.5072 14.9662 37.555 14.9475 37.6079C14.9288 37.6608 14.9227 37.7173 14.9298 37.773C15.1214 39.252 15.6339 40.5232 16.4673 41.5865C16.792 42.0031 16.8409 42.3451 16.7547 42.8222C16.7462 42.8684 16.7236 42.9107 16.6901 42.9432C16.6565 42.9757 16.6138 42.9967 16.5679 43.0032C14.9586 43.2389 14.2258 41.1985 13.8062 40.0231C13.4613 39.0633 13.6596 37.9713 13.5878 36.9195C13.5801 36.8333 13.538 36.771 13.4613 36.7327Z" fill="white"/>
</svg>
