<svg width="100" height="100" viewBox="0 0 100 100" fill="none" xmlns="http://www.w3.org/2000/svg">
<path d="M30.9615 15.4445V7.25C30.9615 6.65326 30.7792 6.08097 30.4546 5.65901C30.13 5.23705 29.6898 5 29.2308 5H11.9231C10.087 5 8.32605 5.94821 7.02772 7.63604C5.72939 9.32387 5 11.6131 5 14V27.5C5 28.0967 5.18235 28.669 5.50693 29.091C5.83151 29.5129 6.27174 29.75 6.73077 29.75H15V27.4995L15.0015 27.4393C15.0541 25.2555 15.9313 23.3098 17.2395 21.7979C18.5006 20.2349 20.1912 19.1651 21.938 18.5332L21.979 18.5184L30.9615 15.4445Z" fill="#D9D9D9"/>
<path d="M60.3846 5C60.6048 5 60.8207 5.05456 61.0216 5.15792L37.8846 13.0754V7.25C37.8846 6.65326 38.067 6.08097 38.3915 5.65901C38.7161 5.23705 39.1564 5 39.6154 5H60.3846Z" fill="#D9D9D9"/>
<path d="M69.0385 29.75V26.6016L77.5964 23.8788L77.6094 23.8746C79.4057 23.2923 81.1472 22.2821 82.4949 20.7914C83.9217 19.3024 84.9199 17.2987 84.9747 14.9994L84.9761 14.9398V7.24817C85.0292 6.467 84.9363 5.70886 84.726 5H88.0769C89.913 5 91.674 5.94821 92.9723 7.63604C94.2706 9.32387 95 11.6131 95 14V27.5C95 28.0967 94.8177 28.669 94.4931 29.091C94.1685 29.5129 93.7283 29.75 93.2692 29.75H69.0385Z" fill="#D9D9D9"/>
<path d="M93.2692 61.25H83.5554C83.3121 60.8742 83.0434 60.5173 82.7535 60.1817C82.6757 60.0862 82.5962 59.9926 82.5152 59.9008C83.0445 59.4659 83.5362 58.9363 83.9457 58.3017C84.6705 57.1785 85.0746 55.8081 84.9761 54.3585V46.5223L84.9747 46.4627C84.9199 44.1634 83.9217 42.1598 82.4949 40.6707C81.8041 39.9066 81.0098 39.2687 80.1576 38.75H93.2692C93.7283 38.75 94.1685 38.9871 94.4931 39.409C94.8177 39.831 95 40.4033 95 41V59C95 59.5967 94.8177 60.169 94.4931 60.591C94.1685 61.0129 93.7283 61.25 93.2692 61.25Z" fill="#D9D9D9"/>
<path d="M16.4429 38.75H6.73077C6.27174 38.75 5.83151 38.9871 5.50693 39.409C5.18235 39.831 5 40.4033 5 41V59C5 59.5967 5.18235 60.169 5.50693 60.591C5.83151 61.0129 6.27174 61.25 6.73077 61.25H20.0578C19.1107 60.694 18.2293 59.9939 17.4761 59.1405C16.0738 57.6625 15.0923 55.6852 15.026 53.4174L15.0239 53.3444V45.6509C14.9242 44.2559 15.2883 42.9258 15.9651 41.8151C16.3871 41.1227 16.907 40.549 17.4692 40.0826C17.3912 39.993 17.3146 39.9018 17.2395 39.8087C16.9517 39.4761 16.6848 39.1225 16.4429 38.75Z" fill="#D9D9D9"/>
<path d="M85 72.5066V70.25H93.2692C93.7283 70.25 94.1685 70.4871 94.4931 70.909C94.8177 71.331 95 71.9033 95 72.5V86C95 88.3869 94.2706 90.6761 92.9723 92.364C91.674 94.0518 89.913 95 88.0769 95H70.7692C70.3102 95 69.87 94.7629 69.5454 94.341C69.2208 93.919 69.0385 93.3467 69.0385 92.75V84.515L77.8037 81.5078C79.6387 80.9125 81.4363 79.8348 82.7595 78.2008C84.0633 76.6907 84.9385 74.7511 84.9981 72.575L85 72.5066Z" fill="#D9D9D9"/>
<path d="M38.9622 94.8336L62.1154 86.8902V92.75C62.1154 93.3467 61.933 93.919 61.6085 94.341C61.2839 94.7629 60.8436 95 60.3846 95H39.6154C39.3892 95 39.1676 94.9425 38.9622 94.8336Z" fill="#D9D9D9"/>
<path d="M15.2659 95H11.9231C10.087 95 8.32605 94.0518 7.02772 92.364C5.72939 90.6761 5 88.3869 5 86V72.5C5 71.9033 5.18235 71.331 5.50693 70.909C5.83151 70.4871 6.27174 70.25 6.73077 70.25H30.9615V73.2921L22.2043 76.0409L22.1096 76.0749C20.4025 76.6872 18.7608 77.6919 17.4831 79.1313C16.0697 80.6174 15.0825 82.6101 15.0255 84.8946L15.0239 84.957V92.7308C14.9661 93.5166 15.0557 94.2823 15.2659 95Z" fill="#D9D9D9"/>
<path d="M80 65.951V72.4381C79.9751 73.3467 79.6016 74.2321 78.9218 74.9937C78.3086 75.7801 77.363 76.4008 76.2262 76.7629L23.7977 94.7502C23.384 94.9141 22.9207 95 22.4499 95C21.9791 95 21.5158 94.9141 21.1021 94.7502C20.7223 94.5522 20.422 94.2838 20.2324 93.9727C20.0429 93.6616 19.9709 93.3192 20.0239 92.9809V85.0194C20.0464 84.1196 20.4446 83.2462 21.1656 82.5158C21.8042 81.7701 22.7158 81.1693 23.7977 80.7813L56.953 70.374C57.9361 70.0503 58.4355 69.6571 58.4355 69.2177C58.4355 68.7783 57.9361 68.3677 56.953 68.0613L23.7977 57.4979C22.7134 57.1125 21.8009 56.5112 21.1656 55.7634C20.4481 55.0361 20.0501 54.1672 20.0239 53.2714V45.4082C19.9725 45.07 20.0453 44.728 20.2347 44.4172C20.4242 44.1063 20.7235 43.8377 21.1021 43.6389C21.5171 43.478 21.9799 43.3938 22.4499 43.3938C22.9199 43.3938 23.3827 43.478 23.7977 43.6389L76.2262 61.6262C77.3596 61.9921 78.3037 62.6118 78.9218 63.3954C79.5996 64.1577 79.973 65.0426 80 65.951Z" fill="#3B9ADC"/>
<path d="M79.9761 7.01696V14.8802C79.9546 15.7801 79.5563 16.6537 78.8344 17.3837C78.165 18.1471 77.2029 18.7502 76.0675 19.1183L43.047 29.6238C41.9899 29.9515 41.4614 30.3369 41.4614 30.7802C41.4614 31.2235 41.9899 31.6089 43.047 31.9366L76.0675 42.3438C77.2029 42.7119 78.165 43.315 78.8344 44.0784C79.5563 44.8084 79.9546 45.682 79.9761 46.5819V54.5897C80.0259 54.9325 79.9457 55.2788 79.7444 55.5907C79.5432 55.9027 79.2284 56.1684 78.8344 56.3589C78.4316 56.5214 77.9787 56.6067 77.5184 56.6067C77.058 56.6067 76.6052 56.5214 76.2023 56.3589L23.639 38.3717C22.5619 37.9821 21.6699 37.3658 21.0782 36.6025C20.3957 35.8418 20.0219 34.9559 20 34.0469V27.5597C20.0219 26.6508 20.3957 25.7649 21.0782 25.0042C21.6699 24.2409 22.5619 23.6246 23.639 23.2349L76.2023 5.24772C76.6052 5.08524 77.058 5 77.5184 5C77.9787 5 78.4316 5.08524 78.8344 5.24772C79.2284 5.43828 79.5432 5.70399 79.7444 6.01593C79.9457 6.32788 80.0259 6.67411 79.9761 7.01696Z" fill="#3B9ADC"/>
</svg>
