<svg width="90" height="22" viewBox="0 0 90 22" fill="none" xmlns="http://www.w3.org/2000/svg">
<path d="M54.2892 13.7704C54.6537 13.7704 54.9929 13.7127 55.3067 13.5973C55.6252 13.4773 55.9182 13.3227 56.1859 13.1335L56.7535 13.895C56.4351 14.1672 56.052 14.3818 55.6044 14.5387C55.1568 14.6956 54.7184 14.7741 54.2892 14.7741C53.5646 14.7741 52.9463 14.6195 52.434 14.3103C51.9264 13.9965 51.5387 13.5581 51.2711 12.9951C51.0034 12.4274 50.8696 11.7629 50.8696 11.0015C50.8696 10.2723 51.0034 9.6193 51.2711 9.04245C51.5387 8.46559 51.9287 8.01103 52.4409 7.67876C52.9532 7.34187 53.5739 7.17343 54.303 7.17343C55.2306 7.17343 56.0428 7.45494 56.7397 8.01795L56.172 8.79325C55.5398 8.35945 54.9122 8.14255 54.2892 8.14255C53.6616 8.14255 53.1447 8.38022 52.7386 8.85555C52.3325 9.32626 52.1294 10.0416 52.1294 11.0015C52.1294 11.9752 52.3325 12.6813 52.7386 13.1197C53.1447 13.5535 53.6616 13.7704 54.2892 13.7704Z" fill="white"/>
<path d="M59.3681 14.6149V13.7219H60.5033V8.2187H59.3681V7.32572H61.3894L61.604 9.04937C61.8855 8.44944 62.227 7.98565 62.6285 7.65799C63.03 7.33034 63.5607 7.16651 64.2206 7.16651C64.4237 7.16651 64.6036 7.18266 64.7605 7.21497C64.9221 7.24266 65.0859 7.27957 65.252 7.32572L65.0859 9.79005H64.1306V8.23946C64.1122 8.23946 64.0914 8.23946 64.0683 8.23946C62.9515 8.23946 62.1509 9.03783 61.6663 10.6346V13.7219H63.1477V14.6149H59.3681Z" fill="white"/>
<path d="M70.3656 3.91304C70.624 3.91304 70.8294 3.99149 70.9816 4.1484C71.1386 4.3053 71.217 4.49682 71.217 4.72295C71.217 4.9583 71.1386 5.15674 70.9816 5.31826C70.8294 5.47517 70.624 5.55362 70.3656 5.55362C70.121 5.55362 69.9202 5.47517 69.7633 5.31826C69.6064 5.15674 69.528 4.9583 69.528 4.72295C69.528 4.49682 69.6064 4.3053 69.7633 4.1484C69.9202 3.99149 70.121 3.91304 70.3656 3.91304ZM71.2932 7.32572V13.6942H73.3491V14.6149H67.8805V13.6942H70.1302V8.24639H67.9497V7.32572H71.2932Z" fill="white"/>
<path d="M79.1687 7.17343C79.8148 7.17343 80.3293 7.33034 80.7123 7.64415C81.1 7.95796 81.3792 8.40098 81.5499 8.97322C81.7207 9.54085 81.8061 10.2054 81.8061 10.9668C81.8061 11.7006 81.7022 12.3559 81.4946 12.9328C81.2915 13.505 80.9823 13.955 80.567 14.2826C80.1516 14.6103 79.6279 14.7741 78.9956 14.7741C78.1972 14.7741 77.5558 14.4926 77.0712 13.9296V17.4046L75.9083 17.5499V7.32572H76.8982L76.9951 8.3433C77.2627 7.96949 77.5812 7.68107 77.9504 7.47801C78.3195 7.27496 78.7256 7.17343 79.1687 7.17343ZM78.8918 8.10794C78.4903 8.10794 78.1349 8.23023 77.8258 8.47482C77.5166 8.71479 77.265 8.98245 77.0712 9.2778V12.8912C77.2604 13.1727 77.4981 13.3966 77.7842 13.5627C78.075 13.7242 78.3934 13.805 78.7395 13.805C79.344 13.805 79.7986 13.5742 80.1032 13.1127C80.4078 12.6513 80.5601 11.9337 80.5601 10.9599C80.5601 9.0586 80.004 8.10794 78.8918 8.10794Z" fill="white"/>
<path d="M90 14.248C89.7508 14.4141 89.4485 14.5433 89.0932 14.6356C88.7378 14.7279 88.3894 14.7741 88.0479 14.7741C87.2634 14.7741 86.6589 14.5687 86.2343 14.158C85.8097 13.7473 85.5974 13.2189 85.5974 12.5728V8.22562H83.9222V7.32572H85.5974V5.6713L86.7604 5.53285V7.32572H89.2801L89.1416 8.22562H86.7604V12.559C86.7604 12.9651 86.8665 13.2743 87.0788 13.4865C87.2957 13.6988 87.6534 13.805 88.1518 13.805C88.424 13.805 88.6755 13.7727 88.9063 13.7081C89.137 13.6435 89.3516 13.5604 89.5501 13.4589L90 14.248Z" fill="white"/>
<path d="M48.913 14.8008V16.3761C48.907 16.5967 48.8163 16.8117 48.6512 16.9966C48.5023 17.1876 48.2727 17.3383 47.9967 17.4262L35.2654 21.7941C35.1649 21.8339 35.0524 21.8548 34.9381 21.8548C34.8238 21.8548 34.7113 21.8339 34.6108 21.7941C34.5186 21.746 34.4457 21.6808 34.3996 21.6053C34.3536 21.5298 34.3361 21.4466 34.349 21.3645V19.4312C34.3545 19.2127 34.4512 19.0006 34.6262 18.8232C34.7813 18.6421 35.0027 18.4963 35.2654 18.402L43.3165 15.8748C43.5552 15.7962 43.6765 15.7007 43.6765 15.594C43.6765 15.4873 43.5552 15.3876 43.3165 15.3132L35.2654 12.7481C35.0021 12.6545 34.7805 12.5085 34.6262 12.3269C34.452 12.1503 34.3554 11.9393 34.349 11.7218V9.81235C34.3365 9.73024 34.3542 9.64719 34.4002 9.5717C34.4462 9.49621 34.5189 9.43099 34.6108 9.38272C34.7116 9.34363 34.824 9.32319 34.9381 9.32319C35.0522 9.32319 35.1646 9.34363 35.2654 9.38272L47.9967 13.7506C48.2719 13.8394 48.5011 13.9899 48.6512 14.1802C48.8158 14.3653 48.9065 14.5802 48.913 14.8008Z" fill="#3B9ADC"/>
<path d="M48.9072 0.489779V2.39922C48.902 2.61774 48.8053 2.82988 48.63 3.00715C48.4675 3.19252 48.2338 3.33898 47.9581 3.42835L39.9397 5.97943C39.683 6.05899 39.5547 6.15258 39.5547 6.26022C39.5547 6.36787 39.683 6.46147 39.9397 6.54103L47.9581 9.06823C48.2338 9.1576 48.4675 9.30406 48.63 9.48943C48.8053 9.6667 48.902 9.87884 48.9072 10.0974V12.0419C48.9193 12.1252 48.8999 12.2092 48.851 12.285C48.8021 12.3607 48.7257 12.4253 48.63 12.4715C48.5322 12.511 48.4222 12.5317 48.3104 12.5317C48.1986 12.5317 48.0887 12.511 47.9908 12.4715L35.2269 8.10368C34.9653 8.00906 34.7487 7.8594 34.605 7.67405C34.4393 7.48933 34.3485 7.27421 34.3432 7.05349V5.4782C34.3485 5.25748 34.4393 5.04235 34.605 4.85763C34.7487 4.67228 34.9653 4.52262 35.2269 4.428L47.9908 0.0601545C48.0887 0.0206981 48.1986 0 48.3104 0C48.4222 0 48.5322 0.0206981 48.63 0.0601545C48.7257 0.106428 48.8021 0.17095 48.851 0.2467C48.8999 0.32245 48.9193 0.406526 48.9072 0.489779Z" fill="#3B9ADC"/>
<path d="M32.1681 15.273C32.0299 15.466 31.8876 15.655 31.7412 15.8399C31.5957 16.0242 31.4388 16.1994 31.2713 16.3644C30.7943 16.8596 30.2462 17.2828 29.6445 17.6205C29.3508 17.8006 29.0441 17.9589 28.7268 18.0942C28.4019 18.2341 28.0673 18.3511 27.7257 18.4442C27.0329 18.6344 26.3173 18.7314 25.5983 18.7325C24.5436 18.7388 23.4991 18.5284 22.5311 18.1147C20.6369 17.3153 19.1278 15.8253 18.3181 13.9551C17.9049 12.9976 17.6919 11.9675 17.6919 10.9268C17.6919 9.88601 17.9049 8.85596 18.3181 7.89848C18.7281 6.97609 19.3 6.13255 20.0075 5.40679C20.743 4.70859 21.5978 4.14431 22.5324 3.74002C23.5003 3.32637 24.5448 3.11599 25.5995 3.12224C26.3185 3.12397 27.034 3.22094 27.7269 3.41054C28.3995 3.59359 29.0447 3.86363 29.6457 4.21364C29.9478 4.38952 30.2372 4.58582 30.5119 4.80113C30.7779 5.00971 31.0319 5.23295 31.2725 5.46978C31.6037 5.8061 31.9039 6.17094 32.1693 6.55997C32.2161 6.623 32.2463 6.69649 32.2572 6.77386C32.2681 6.85123 32.2594 6.93007 32.2319 7.00331C32.2024 7.07678 32.1574 7.14319 32.0999 7.19813C32.0423 7.25306 31.9736 7.29525 31.8982 7.32189L30.3548 7.94208C30.194 8.01246 30.0129 8.02364 29.8444 7.97358C29.6677 7.93233 29.5097 7.83434 29.3954 7.69498C29.3267 7.62714 29.2568 7.55446 29.1868 7.47936C29.1169 7.40426 29.0482 7.33158 28.9783 7.26253C28.8305 7.11613 28.674 6.9786 28.5096 6.85069C28.346 6.72448 28.1752 6.6076 27.998 6.50061C27.8176 6.39117 27.6294 6.29482 27.4349 6.21232C27.241 6.13157 27.0464 6.05606 26.8509 5.9858C26.4454 5.8613 26.023 5.7984 25.5983 5.79926C24.9218 5.798 24.2528 5.93837 23.6353 6.21111C23.0444 6.48486 22.5131 6.86954 22.0711 7.34369C21.6275 7.82392 21.268 8.3737 21.0074 8.9705C20.7432 9.58959 20.6084 10.255 20.6111 10.9268C20.6055 11.5988 20.7404 12.2648 21.0074 12.8831C21.2673 13.4802 21.6269 14.0301 22.0711 14.5099C22.5225 14.989 23.0676 15.3728 23.6734 15.6382C24.2792 15.9037 24.9331 16.0452 25.5958 16.0543C26.0201 16.0554 26.442 15.9929 26.8472 15.869C27.0423 15.8011 27.2374 15.7248 27.4312 15.6424C27.626 15.5604 27.8142 15.4641 27.9943 15.3541C28.1737 15.2456 28.3447 15.1241 28.5059 14.9908C28.6654 14.8599 28.8225 14.7194 28.9746 14.568C29.0445 14.5002 29.1145 14.4275 29.1832 14.3524C29.2519 14.2773 29.323 14.2046 29.3917 14.1356C29.5077 13.9961 29.6646 13.8954 29.8408 13.8473C30.0077 13.792 30.1894 13.7993 30.3511 13.8679L31.8945 14.4856C31.9709 14.5137 32.0402 14.5576 32.0978 14.6145C32.1553 14.6713 32.1998 14.7397 32.2282 14.8151C32.2576 14.8903 32.2675 14.9716 32.257 15.0516C32.2465 15.1315 32.2159 15.2076 32.1681 15.273Z" fill="#3B9ADC"/>
<path d="M15.6105 10.8556C15.5971 11.1302 15.5861 11.4036 15.5799 11.6783C15.5819 11.8365 15.5713 11.9947 15.5482 12.1513C15.4803 13.0723 15.2183 13.969 14.7791 14.7838C14.3516 15.5727 13.7809 16.2769 13.0954 16.861C12.3983 17.4611 11.5949 17.9283 10.7258 18.2389C9.82071 18.5688 8.86336 18.7359 7.89886 18.7325C6.84772 18.7388 5.80675 18.5287 4.84208 18.1155C2.95466 17.3097 1.44691 15.8248 0.62372 13.9611C0.20618 13.0066 -0.00617744 11.9767 0.000136785 10.9367C-0.00280145 9.37431 0.472031 7.84763 1.36224 6.55723C1.64564 6.14455 1.96739 5.75897 2.32329 5.40551C3.05712 4.70715 3.91035 4.14312 4.8433 3.73964C5.80798 3.32651 6.84895 3.1164 7.90009 3.12265C9.22282 3.107 10.5268 3.43309 11.6832 4.0687C12.6134 4.56807 13.4277 5.25464 14.0736 6.0842C14.1268 6.14566 14.1649 6.21852 14.1849 6.29704C14.2048 6.37556 14.2061 6.45759 14.1885 6.53666C14.1716 6.61754 14.1379 6.69404 14.0894 6.76132C14.041 6.82859 13.979 6.88516 13.9073 6.92742L12.4938 7.77427C12.4226 7.82104 12.3423 7.85253 12.2581 7.8667C12.1738 7.88087 12.0875 7.87741 12.0047 7.85654C11.8356 7.81894 11.6806 7.73511 11.5572 7.61458C11.3653 7.39774 11.1612 7.19175 10.9459 6.99759C10.7253 6.80197 10.4848 6.62965 10.2281 6.48343C9.53035 6.05528 8.72604 5.82743 7.90498 5.82531C7.23843 5.82539 6.57952 5.96559 5.97187 6.23664C5.37588 6.50834 4.83926 6.89258 4.39212 7.36779C3.93863 7.8415 3.56982 8.38805 3.30146 8.98406C3.03932 9.60259 2.90623 10.2672 2.91019 10.9379C2.90359 11.6088 3.03678 12.2739 3.30146 12.8917C3.56725 13.4898 3.934 14.0388 4.38601 14.5152C4.82859 14.9903 5.36669 15.3686 5.96575 15.6258C6.56787 15.9152 7.22946 16.063 7.89886 16.0577C8.41473 16.0609 8.92754 15.9792 9.41625 15.8157C9.89272 15.6689 10.342 15.4467 10.7466 15.1576C11.1493 14.8685 11.5066 14.522 11.8067 14.1293C11.9793 13.908 12.1193 13.6636 12.2224 13.4034C12.2635 13.3401 12.2845 13.2661 12.2828 13.1908C12.281 13.1156 12.2566 13.0426 12.2126 12.9812C12.1639 12.9222 12.1017 12.8756 12.031 12.8452C11.9604 12.8149 11.8835 12.8018 11.8067 12.807H7.48314C7.39829 12.8078 7.31414 12.7919 7.23559 12.7601C7.15704 12.7283 7.08568 12.6814 7.02568 12.6221C6.96568 12.5627 6.91825 12.4921 6.88616 12.4144C6.85406 12.3366 6.83795 12.2534 6.83877 12.1694V10.8556C6.83795 10.7717 6.85406 10.6884 6.88616 10.6107C6.91825 10.5329 6.96568 10.4623 7.02568 10.403C7.08568 10.3436 7.15704 10.2967 7.23559 10.2649C7.31414 10.2332 7.39829 10.2172 7.48314 10.218H14.9661C15.051 10.2172 15.1352 10.2332 15.2137 10.2649C15.2922 10.2967 15.3636 10.3436 15.4236 10.403C15.4836 10.4623 15.531 10.5329 15.5631 10.6107C15.5952 10.6884 15.6113 10.7717 15.6105 10.8556Z" fill="#3B9ADC"/>
</svg>
