<svg width="100" height="100" viewBox="0 0 100 100" fill="none" xmlns="http://www.w3.org/2000/svg">
<path d="M22.1099 95C21.5217 95 21.0092 94.8782 20.5725 94.6345C20.1447 94.3908 19.8105 94.04 19.5698 93.5819C19.3381 93.114 19.2222 92.5634 19.2222 91.9298V87.1053C19.2222 86.462 19.3381 85.9113 19.5698 85.4532C19.8105 84.9951 20.1447 84.6442 20.5725 84.4006C21.0092 84.1569 21.5217 84.0351 22.1099 84.0351C22.6981 84.0351 23.2061 84.1618 23.634 84.4152C24.0618 84.6589 24.3915 85.0097 24.6232 85.4678C24.855 85.9259 24.9708 86.4717 24.9708 87.1053H23.7676C23.7676 86.501 23.6206 86.038 23.3265 85.7164C23.0413 85.385 22.6357 85.2193 22.1099 85.2193C21.5841 85.2193 21.1696 85.3801 20.8666 85.7018C20.5725 86.0234 20.4254 86.4864 20.4254 87.0906V91.9298C20.4254 92.5341 20.5725 93.0019 20.8666 93.3333C21.1696 93.6647 21.5841 93.8304 22.1099 93.8304C22.6357 93.8304 23.0413 93.6647 23.3265 93.3333C23.6206 93.0019 23.7676 92.5341 23.7676 91.9298V90.614H21.789V89.4152H24.9708V91.9298C24.9708 92.5536 24.855 93.0994 24.6232 93.5672C24.3915 94.0253 24.0618 94.3811 23.634 94.6345C23.2061 94.8782 22.6981 95 22.1099 95Z" fill="white"/>
<path d="M27.2918 94.8538V84.1813H30.3132C30.8925 84.1813 31.4005 84.3129 31.8372 84.576C32.2739 84.8294 32.6126 85.1852 32.8532 85.6433C33.0939 86.1014 33.2142 86.6374 33.2142 87.2515C33.2142 87.9727 33.0404 88.5916 32.6928 89.1082C32.3541 89.6248 31.8907 89.9805 31.3025 90.1754L33.3479 94.8538H31.9308L30.0592 90.3216H28.495V94.8538H27.2918ZM28.495 89.1374H30.3132C30.8123 89.1374 31.2133 88.9669 31.5164 88.6257C31.8194 88.2749 31.9709 87.8168 31.9709 87.2515C31.9709 86.6764 31.8194 86.2183 31.5164 85.8772C31.2133 85.5361 30.8123 85.3655 30.3132 85.3655H28.495V89.1374Z" fill="white"/>
<path d="M38.0886 95C37.1795 95 36.4844 94.7271 36.0031 94.1813C35.5218 93.6257 35.2812 92.8752 35.2812 91.9298V84.1813H36.4844V91.9298C36.4844 92.5146 36.6136 92.9776 36.872 93.3187C37.1394 93.6598 37.5449 93.8304 38.0886 93.8304C38.6234 93.8304 39.0244 93.6598 39.2918 93.3187C39.5592 92.9776 39.6929 92.5146 39.6929 91.9298V84.1813H40.8961V91.9298C40.8961 92.885 40.6554 93.6355 40.1742 94.1813C39.7018 94.7271 39.0066 95 38.0886 95Z" fill="white"/>
<path d="M43.324 94.8538V84.1813H46.4657C47.0717 84.1813 47.5976 84.3129 48.0432 84.576C48.4888 84.8294 48.832 85.1901 49.0726 85.6579C49.3221 86.1257 49.4469 86.6813 49.4469 87.3246C49.4469 87.9581 49.3221 88.5136 49.0726 88.9912C48.832 89.4591 48.4888 89.8246 48.0432 90.0877C47.5976 90.3411 47.0717 90.4678 46.4657 90.4678H44.5272V94.8538H43.324ZM44.5272 89.2836H46.4657C46.9915 89.2836 47.4104 89.1082 47.7223 88.7573C48.0432 88.3967 48.2036 87.9191 48.2036 87.3246C48.2036 86.7203 48.0432 86.2427 47.7223 85.8918C47.4104 85.5409 46.9915 85.3655 46.4657 85.3655H44.5272V89.2836Z" fill="white"/>
<path d="M54.1208 95C53.5326 95 53.0246 94.8782 52.5968 94.6345C52.1779 94.3908 51.8526 94.04 51.6208 93.5819C51.398 93.114 51.2866 92.5634 51.2866 91.9298V87.1053C51.2866 86.462 51.398 85.9113 51.6208 85.4532C51.8526 84.9951 52.1779 84.6442 52.5968 84.4006C53.0246 84.1569 53.5326 84.0351 54.1208 84.0351C54.709 84.0351 55.2126 84.1569 55.6315 84.4006C56.0593 84.6442 56.3846 84.9951 56.6074 85.4532C56.8391 85.9113 56.955 86.4571 56.955 87.0906V91.9298C56.955 92.5634 56.8391 93.114 56.6074 93.5819C56.3846 94.04 56.0593 94.3908 55.6315 94.6345C55.2126 94.8782 54.709 95 54.1208 95ZM54.1208 93.8158C54.6466 93.8158 55.0477 93.655 55.324 93.3333C55.6092 93.0019 55.7518 92.5341 55.7518 91.9298V87.1053C55.7518 86.501 55.6092 86.038 55.324 85.7164C55.0477 85.385 54.6466 85.2193 54.1208 85.2193C53.6039 85.2193 53.2028 85.385 52.9176 85.7164C52.6324 86.038 52.4898 86.501 52.4898 87.1053V91.9298C52.4898 92.5341 52.6324 93.0019 52.9176 93.3333C53.2028 93.655 53.6039 93.8158 54.1208 93.8158Z" fill="white"/>
<path d="M62.3322 94.8538V84.1813H63.5354V93.655H67.9471V94.8538H62.3322Z" fill="white"/>
<path d="M75.3884 94.8538V84.1813H78.4097C78.989 84.1813 79.4971 84.3129 79.9338 84.576C80.3705 84.8294 80.7092 85.1852 80.9498 85.6433C81.1904 86.1014 81.3108 86.6374 81.3108 87.2515C81.3108 87.9727 81.137 88.5916 80.7894 89.1082C80.4507 89.6248 79.9872 89.9805 79.399 90.1754L81.4445 94.8538H80.0274L78.1557 90.3216H76.5916V94.8538H75.3884ZM76.5916 89.1374H78.4097C78.9088 89.1374 79.3099 88.9669 79.6129 88.6257C79.9159 88.2749 80.0675 87.8168 80.0675 87.2515C80.0675 86.6764 79.9159 86.2183 79.6129 85.8772C79.3099 85.5361 78.9088 85.3655 78.4097 85.3655H76.5916V89.1374Z" fill="white"/>
<path d="M69.4894 91.1988V90.29L71.6783 87.9489C72.0512 87.5471 72.3228 87.1915 72.493 86.882C72.6631 86.5659 72.7482 86.263 72.7482 85.9732C72.7482 85.5715 72.6369 85.2554 72.4144 85.0249C72.1985 84.7944 71.9007 84.6791 71.5212 84.6791C71.1024 84.6791 70.7719 84.7977 70.5298 85.0348C70.2943 85.2718 70.1765 85.5978 70.1765 86.0127H69.2931C69.3062 85.5781 69.4043 85.2027 69.5875 84.8866C69.7773 84.5639 70.0358 84.3169 70.363 84.1457C70.6967 83.9745 71.0828 83.8889 71.5212 83.8889C71.9531 83.8889 72.3261 83.9745 72.6402 84.1457C72.9608 84.3104 73.2062 84.5474 73.3764 84.857C73.5465 85.1665 73.6316 85.5353 73.6316 85.9633C73.6316 86.3716 73.5236 86.7766 73.3076 87.1784C73.0917 87.5801 72.7383 88.0378 72.2476 88.5514L70.4808 90.3888H73.7494V91.1988H69.4894Z" fill="white"/>
<path d="M62.5555 76.1111L65.8889 79.4444H81.4444L70.3333 68.3333L62.5555 76.1111Z" fill="white"/>
<path d="M65.8889 79.4444L42.5556 56.1111L19.2222 79.4444H65.8889Z" fill="#3B9ADC"/>
<path d="M19.2222 41.6667L17.8787 43.0102C17.3161 43.5728 17 44.3359 17 45.1315V81.6667L19.2222 79.4445V41.6667Z" fill="#3B9ADC"/>
<path d="M83.6667 81.6667V45.1315C83.6667 44.3359 83.3506 43.5728 82.788 43.0102L81.4444 41.6667V79.4445L83.6667 81.6667Z" fill="#3B9ADC"/>
<path d="M20.3333 5C19.7197 5 19.2222 5.49746 19.2222 6.11111V40.5556C19.2222 40.8624 19.2222 41.1111 19.2222 41.6667L50.3333 10.5556L81.4444 41.6667C81.4444 41.6667 81.4444 40.8624 81.4444 40.5556V6.11111C81.4444 5.49746 80.947 5 80.3333 5H20.3333Z" fill="#3B9ADC"/>
</svg>
