<svg width="100" height="100" viewBox="0 0 100 100" fill="none" xmlns="http://www.w3.org/2000/svg">
<path d="M19.8795 49.6454C19.8667 49.91 19.8562 50.1734 19.8503 50.4379C19.8522 50.5904 19.8421 50.7428 19.82 50.8936C19.7554 51.7809 19.5057 52.6447 19.087 53.4297C18.6796 54.1896 18.1355 54.868 17.4821 55.4307C16.8177 56.0089 16.0519 56.459 15.2235 56.7582C14.3608 57.0759 13.4483 57.237 12.529 57.2337C11.527 57.2397 10.5348 57.0373 9.61533 56.6393C7.81629 55.863 6.37915 54.4326 5.59451 52.6371C5.19652 51.7176 4.99411 50.7254 5.00013 49.7235C4.99733 48.2184 5.44993 46.7477 6.29845 45.5046C6.56857 45.107 6.87526 44.7356 7.21449 44.3951C7.91396 43.7223 8.72723 43.1789 9.61649 42.7902C10.536 42.3922 11.5282 42.1898 12.5301 42.1958C13.7909 42.1808 15.0338 42.4949 16.136 43.1072C17.0227 43.5883 17.7989 44.2497 18.4145 45.0489C18.4653 45.1081 18.5016 45.1783 18.5206 45.2539C18.5396 45.3296 18.5408 45.4086 18.5241 45.4848C18.5079 45.5627 18.4758 45.6364 18.4296 45.7012C18.3835 45.766 18.3244 45.8205 18.256 45.8612L16.9087 46.677C16.8409 46.7221 16.7643 46.7524 16.684 46.766C16.6038 46.7797 16.5215 46.7764 16.4426 46.7563C16.2814 46.72 16.1336 46.6393 16.016 46.5232C15.8331 46.3143 15.6385 46.1158 15.4333 45.9288C15.2231 45.7403 14.9938 45.5743 14.7492 45.4335C14.0841 45.021 13.3174 44.8015 12.5348 44.7995C11.8995 44.7995 11.2714 44.9346 10.6922 45.1957C10.1241 45.4575 9.61264 45.8276 9.18644 46.2854C8.75419 46.7418 8.40265 47.2683 8.14686 47.8425C7.89699 48.4383 7.77013 49.0786 7.77391 49.7247C7.76761 50.371 7.89457 51.0118 8.14686 51.6069C8.40019 52.1831 8.74977 52.712 9.18061 53.1709C9.60247 53.6286 10.1154 53.993 10.6864 54.2408C11.2603 54.5196 11.8909 54.662 12.529 54.6569C13.0207 54.66 13.5095 54.5812 13.9753 54.4238C14.4295 54.2824 14.8577 54.0683 15.2433 53.7898C15.6272 53.5113 15.9677 53.1775 16.2538 52.7991C16.4183 52.586 16.5517 52.3506 16.65 52.0999C16.6892 52.0389 16.7092 51.9675 16.7076 51.8951C16.7059 51.8226 16.6826 51.7523 16.6407 51.6931C16.5943 51.6363 16.5349 51.5914 16.4676 51.5622C16.4003 51.533 16.327 51.5203 16.2538 51.5253H12.1327C12.0518 51.5261 11.9716 51.5107 11.8967 51.4801C11.8219 51.4495 11.7539 51.4043 11.6967 51.3471C11.6395 51.29 11.5943 51.2219 11.5637 51.1471C11.5331 51.0722 11.5177 50.992 11.5185 50.9111V49.6454C11.5177 49.5645 11.5331 49.4843 11.5637 49.4095C11.5943 49.3346 11.6395 49.2666 11.6967 49.2094C11.7539 49.1522 11.8219 49.107 11.8967 49.0764C11.9716 49.0458 12.0518 49.0304 12.1327 49.0312H19.2653C19.3462 49.0304 19.4264 49.0458 19.5012 49.0764C19.5761 49.107 19.6441 49.1522 19.7013 49.2094C19.7585 49.2666 19.8037 49.3346 19.8343 49.4095C19.8649 49.4843 19.8803 49.5645 19.8795 49.6454Z" fill="#3B9ADC"/>
<path d="M35.3928 53.8947C35.2615 54.0804 35.1263 54.2622 34.9873 54.4401C34.8491 54.6174 34.7 54.786 34.5409 54.9447C34.0878 55.4212 33.5671 55.8284 32.9955 56.1533C32.7166 56.3265 32.4252 56.4788 32.1237 56.609C31.8151 56.7437 31.4973 56.8562 31.1727 56.9458C30.5147 57.1288 29.8349 57.2221 29.1518 57.2232C28.1499 57.2292 27.1577 57.0268 26.2382 56.6288C24.4388 55.8596 23.0053 54.4261 22.236 52.6267C21.8435 51.7054 21.6412 50.7144 21.6412 49.713C21.6412 48.7117 21.8435 47.7206 22.236 46.7994C22.6255 45.9119 23.1688 45.1003 23.8409 44.402C24.5396 43.7303 25.3516 43.1874 26.2394 42.7984C27.1589 42.4004 28.1511 42.198 29.153 42.204C29.836 42.2057 30.5157 42.299 31.1739 42.4814C31.8129 42.6575 32.4258 42.9173 32.9967 43.2541C33.2836 43.4233 33.5586 43.6122 33.8195 43.8193C34.0723 44.02 34.3135 44.2348 34.5421 44.4626C34.8567 44.7862 35.1418 45.1373 35.394 45.5116C35.4384 45.5722 35.4671 45.6429 35.4775 45.7173C35.4878 45.7918 35.4796 45.8676 35.4535 45.9381C35.4254 46.0088 35.3827 46.0727 35.328 46.1256C35.2733 46.1784 35.208 46.219 35.1364 46.2446L33.6703 46.8413C33.5175 46.9091 33.3455 46.9198 33.1855 46.8716C33.0175 46.832 32.8675 46.7377 32.7589 46.6036C32.6937 46.5383 32.6272 46.4684 32.5608 46.3961C32.4944 46.3239 32.4291 46.2539 32.3627 46.1875C32.2223 46.0467 32.0736 45.9143 31.9175 45.7913C31.762 45.6698 31.5997 45.5574 31.4315 45.4544C31.2601 45.3491 31.0813 45.2564 30.8965 45.1771C30.7124 45.0994 30.5275 45.0267 30.3418 44.9591C29.9565 44.8393 29.5553 44.7788 29.1518 44.7796C28.5092 44.7784 27.8737 44.9135 27.2871 45.1759C26.7258 45.4393 26.2211 45.8094 25.8012 46.2656C25.3798 46.7276 25.0383 47.2566 24.7907 47.8308C24.5398 48.4265 24.4117 49.0667 24.4143 49.713C24.4089 50.3596 24.5371 51.0004 24.7907 51.5952C25.0377 52.1698 25.3792 52.6988 25.8012 53.1604C26.23 53.6214 26.7478 53.9907 27.3233 54.2461C27.8987 54.5015 28.52 54.6376 29.1495 54.6464C29.5525 54.6475 29.9533 54.5874 30.3383 54.4681C30.5236 54.4028 30.7089 54.3294 30.893 54.2501C31.0781 54.1712 31.2569 54.0785 31.428 53.9728C31.5984 53.8683 31.7608 53.7515 31.914 53.6231C32.0655 53.4972 32.2147 53.3621 32.3592 53.2164C32.4256 53.1511 32.492 53.0812 32.5573 53.0089C32.6226 52.9367 32.6902 52.8667 32.7554 52.8003C32.8656 52.6661 33.0146 52.5692 33.182 52.5229C33.3405 52.4697 33.5131 52.4768 33.6668 52.5427L35.133 53.1371C35.2055 53.1641 35.2713 53.2064 35.326 53.2611C35.3807 53.3158 35.423 53.3816 35.45 53.4541C35.4778 53.5265 35.4872 53.6047 35.4772 53.6816C35.4673 53.7586 35.4383 53.8318 35.3928 53.8947Z" fill="#3B9ADC"/>
<path d="M46.0498 52.9297V54.2373C46.0461 54.4205 45.9912 54.5989 45.8913 54.7524C45.8011 54.911 45.6621 55.0361 45.495 55.1091L37.7879 58.7348C37.7271 58.7678 37.659 58.7852 37.5897 58.7852C37.5205 58.7852 37.4524 58.7678 37.3916 58.7348C37.3358 58.6949 37.2916 58.6408 37.2638 58.5781C37.2359 58.5154 37.2253 58.4463 37.2331 58.3782V56.7733C37.2364 56.592 37.295 56.4159 37.4009 56.2687C37.4948 56.1184 37.6288 55.9973 37.7879 55.9191L42.6618 53.8212C42.8063 53.756 42.8797 53.6767 42.8797 53.5881C42.8797 53.4996 42.8063 53.4168 42.6618 53.3551L37.7879 51.2258C37.6285 51.1481 37.4943 51.0269 37.4009 50.8761C37.2955 50.7295 37.237 50.5544 37.2331 50.3738V48.7888C37.2256 48.7206 37.2363 48.6517 37.2641 48.589C37.292 48.5264 37.336 48.4722 37.3916 48.4322C37.4526 48.3997 37.5206 48.3828 37.5897 48.3828C37.6588 48.3828 37.7269 48.3997 37.7879 48.4322L45.495 52.0579C45.6616 52.1317 45.8004 52.2566 45.8913 52.4145C45.9909 52.5682 46.0458 52.7466 46.0498 52.9297Z" fill="#3B9ADC"/>
<path d="M46.0462 41.0502V42.6352C46.0431 42.8166 45.9845 42.9927 45.8784 43.1399C45.78 43.2937 45.6386 43.4153 45.4717 43.4895L40.6176 45.6071C40.4622 45.6732 40.3845 45.7509 40.3845 45.8402C40.3845 45.9296 40.4622 46.0073 40.6176 46.0733L45.4717 48.1711C45.6386 48.2453 45.78 48.3669 45.8784 48.5208C45.9845 48.6679 46.0431 48.844 46.0462 49.0254V50.6396C46.0536 50.7087 46.0418 50.7784 46.0122 50.8413C45.9826 50.9042 45.9363 50.9578 45.8784 50.9962C45.8192 51.0289 45.7526 51.0461 45.685 51.0461C45.6173 51.0461 45.5507 51.0289 45.4915 50.9962L37.7645 47.3705C37.6062 47.2919 37.4751 47.1677 37.3881 47.0138C37.2877 46.8605 37.2328 46.6819 37.2296 46.4987V45.1911C37.2328 45.0078 37.2877 44.8293 37.3881 44.6759C37.4751 44.5221 37.6062 44.3978 37.7645 44.3193L45.4915 40.6936C45.5507 40.6608 45.6173 40.6436 45.685 40.6436C45.7526 40.6436 45.8192 40.6608 45.8784 40.6936C45.9363 40.732 45.9826 40.7855 46.0122 40.8484C46.0418 40.9113 46.0536 40.9811 46.0462 41.0502Z" fill="#3B9ADC"/>
<path d="M52.4737 53.9798C52.998 53.9847 53.5191 53.8975 54.0133 53.7222C54.4681 53.5583 54.8992 53.3349 55.2953 53.0579L55.9398 53.89C55.4569 54.2884 54.9034 54.5924 54.3082 54.7862C53.7353 54.9902 53.133 55.0993 52.525 55.1091C51.515 55.1091 50.658 54.8892 49.954 54.4494C49.2445 54.0025 48.6854 53.3529 48.3492 52.5847C47.9832 51.7798 47.8003 50.8354 47.8003 49.7515C47.7848 48.7985 47.9719 47.853 48.3492 46.9777C48.6881 46.1908 49.2439 45.5166 49.9517 45.0337C50.6556 44.5582 51.5161 44.3205 52.5332 44.3205C53.1447 44.3179 53.7522 44.4184 54.3303 44.6177C54.9042 44.8174 55.439 45.1155 55.9107 45.4987L55.2568 46.381C54.8274 46.0775 54.3594 45.8325 53.8653 45.6526C53.4187 45.493 52.948 45.411 52.4737 45.4102C52.022 45.4011 51.574 45.4944 51.1635 45.6831C50.7529 45.8718 50.3904 46.1511 50.1032 46.4999C49.4816 47.2263 49.1708 48.3094 49.1708 49.7492C49.1708 50.7196 49.3126 51.5171 49.5962 52.1418C49.8358 52.7136 50.2455 53.1979 50.7698 53.5287C51.2853 53.8334 51.875 53.9895 52.4737 53.9798Z" fill="#3B9ADC"/>
<path d="M57.6891 55.0193V53.9867H59.3826V45.6572H57.6891V44.6177H60.3242L60.5515 47.1106C60.9617 46.266 61.452 45.6056 62.0223 45.1293C62.5926 44.653 63.3637 44.4133 64.3357 44.4102C64.5798 44.4079 64.8236 44.4278 65.0641 44.4696C65.2786 44.5093 65.5047 44.559 65.7424 44.6188L65.3928 45.7773C65.1937 45.719 64.9918 45.6708 64.7879 45.6328C64.5898 45.6017 64.3894 45.5869 64.1889 45.5885C63.793 45.5807 63.3996 45.6525 63.0321 45.7996C62.6645 45.9468 62.3302 46.1663 62.0491 46.4451C61.4602 47.0162 60.9812 47.9194 60.6121 49.1548V53.9867H62.7519V55.017L57.6891 55.0193ZM64.415 47.8868V45.8554L64.4942 44.6177H65.7424L65.6037 47.8868H64.415Z" fill="#3B9ADC"/>
<path d="M72.0138 44.7074V54.038H75.0358V55.1091H67.4906V54.038H70.7795V45.7773H67.585V44.7074H72.0138ZM70.8483 40.0013C70.9868 39.9943 71.1253 40.0161 71.2549 40.0655C71.3845 40.1148 71.5024 40.1906 71.6012 40.288C71.6917 40.3802 71.7629 40.4895 71.8105 40.6096C71.8582 40.7297 71.8813 40.8581 71.8786 40.9873C71.8862 41.2569 71.7864 41.5184 71.6012 41.7145C71.5029 41.8126 71.385 41.8889 71.2553 41.9385C71.1256 41.9881 70.987 42.0098 70.8483 42.0024C70.7139 42.0074 70.5799 41.9839 70.4552 41.9335C70.3304 41.8831 70.2178 41.8069 70.1246 41.7098C69.9394 41.5138 69.8396 41.2522 69.8472 40.9826C69.8447 40.8514 69.8691 40.721 69.9187 40.5995C69.9684 40.478 70.0424 40.368 70.1361 40.2761C70.2299 40.1842 70.3414 40.1124 70.4639 40.0652C70.5863 40.0179 70.7171 39.9962 70.8483 40.0013Z" fill="#3B9ADC"/>
<path d="M81.0973 44.3205C82.0297 44.3205 82.7678 44.545 83.3117 44.9941C83.8556 45.4432 84.2499 46.071 84.4946 46.8775C84.7471 47.7986 84.8671 48.751 84.8512 49.706C84.8667 50.6518 84.7213 51.5933 84.4212 52.4903C84.1748 53.2422 83.7172 53.9074 83.1031 54.4063C82.5126 54.8725 81.7581 55.1056 80.8397 55.1056C79.6572 55.1056 78.7128 54.6926 78.0065 53.8667V58.8782L76.7781 59.046V44.5081H77.7886L77.9273 46.0442C78.2828 45.5295 78.7476 45.0996 79.2885 44.7855C79.8393 44.4722 80.4637 44.3117 81.0973 44.3205ZM80.8794 45.3694C80.2641 45.3617 79.6652 45.5677 79.1848 45.9521C78.732 46.3012 78.3347 46.717 78.0065 47.1852V52.5742C78.2955 53.0027 78.6827 53.356 79.1358 53.6045C79.595 53.86 80.1127 53.9917 80.6381 53.9867C81.6016 53.9867 82.3199 53.6336 82.793 52.9273C83.2662 52.2211 83.502 51.1411 83.5005 49.6874C83.5178 48.8972 83.4256 48.1085 83.2266 47.3437C83.0425 46.7042 82.7569 46.2155 82.37 45.8775C81.9831 45.5395 81.4862 45.3705 80.8794 45.3705V45.3694Z" fill="#3B9ADC"/>
<path d="M95 54.4156C94.6158 54.6563 94.1939 54.8305 93.7518 54.9308C93.3082 55.0433 92.8528 55.1031 92.3952 55.1091C91.351 55.1091 90.5351 54.8313 89.9477 54.2758C89.6594 54.0109 89.431 53.6874 89.278 53.327C89.125 52.9666 89.051 52.5775 89.0608 52.1861V45.543H86.5994V44.5081H89.0562V42.1108L90.2846 41.9628V44.5081H93.9499L93.7821 45.5384H90.2857V52.157C90.2857 52.7576 90.4493 53.2214 90.7764 53.5485C91.1035 53.8756 91.6532 54.0388 92.4255 54.038C92.7967 54.0414 93.1667 53.9952 93.5257 53.9005C93.8513 53.8117 94.1665 53.6886 94.4662 53.5334L95 54.4156Z" fill="#3B9ADC"/>
</svg>
