<svg width="50" height="50" viewBox="0 0 50 50" fill="none" xmlns="http://www.w3.org/2000/svg">
<g id="icons">
<path id="return" d="M45 29.539C44.9964 32.802 43.6986 35.9304 41.3913 38.2377C39.084 40.545 35.9557 41.8428 32.6927 41.8463H15.7701C15.3621 41.8463 14.9708 41.6843 14.6823 41.3958C14.3938 41.1072 14.2317 40.7159 14.2317 40.3079C14.2317 39.8999 14.3938 39.5086 14.6823 39.2201C14.9708 38.9316 15.3621 38.7695 15.7701 38.7695H32.6927C35.1408 38.7695 37.4886 37.797 39.2196 36.066C40.9507 34.3349 41.9232 31.9871 41.9232 29.539C41.9232 27.0909 40.9507 24.7431 39.2196 23.0121C37.4886 21.281 35.1408 20.3085 32.6927 20.3085H17.3085V28.0006C17.3088 28.3051 17.2187 28.6027 17.0496 28.8559C16.8806 29.1092 16.6403 29.3065 16.359 29.4231C16.0777 29.5396 15.7682 29.5701 15.4697 29.5106C15.1711 29.4511 14.8968 29.3044 14.6817 29.089L5.4512 19.8585C5.30816 19.7157 5.19469 19.546 5.11727 19.3592C5.03985 19.1725 5 18.9723 5 18.7701C5 18.5679 5.03985 18.3678 5.11727 18.181C5.19469 17.9942 5.30816 17.8246 5.4512 17.6817L14.6817 8.4512C14.8968 8.2358 15.1711 8.08909 15.4697 8.02963C15.7682 7.97017 16.0777 8.00063 16.359 8.11717C16.6403 8.23371 16.8806 8.43108 17.0496 8.6843C17.2187 8.93751 17.3088 9.23518 17.3085 9.53963V17.2317H32.6927C35.9557 17.2353 39.084 18.5331 41.3913 20.8404C43.6986 23.1477 44.9964 26.276 45 29.539Z" fill="#3B9ADC"/>
</g>
</svg>
